<?xml version="1.0" encoding="UTF-8"?>
<svg width="166px" height="58px" viewBox="0 0 166 58" version="1.1" xmlns="http://www.w3.org/2000/svg" xmlns:xlink="http://www.w3.org/1999/xlink">
    <!-- Generator: sketchtool 53.2 (72643) - https://sketchapp.com -->
    <title>753C7BB2-2434-4B3E-AE47-7083D39A719C</title>
    <desc>Created with sketchtool.</desc>
    <defs>
        <polygon id="path-1" points="0 0 165.999928 0 165.999928 58 0 58"></polygon>
    </defs>
    <g id="Page-1" stroke="none" stroke-width="1" fill="none" fill-rule="evenodd">
        <g id="Homepage" transform="translate(-67.000000, -36.000000)">
            <g id="Freshgrass-logo_WEB" transform="translate(67.000000, 36.000000)">
                <g id="Group-3">
                    <mask id="mask-2" fill="white">
                        <use xlink:href="#path-1"></use>
                    </mask>
                    <g id="Clip-2"></g>
                    <path d="M144.27558,58 L-7.2173913e-05,58 L-7.2173913e-05,21.8225 C-7.2173913e-05,9.7875 9.74340609,0 21.7242757,0 L165.999928,0 L165.999928,36.1775 C165.999928,48.2125 156.25645,58 144.27558,58" id="Fill-1" fill="#77BF44" mask="url(#mask-2)"></path>
                </g>
                <path d="M27,23.904059 L27,25.7490775 L22.5,25.7490775 L22.5375,37.9630996 L20.2875,38 L20.25,25.7490775 L18,25.7490775 L18,23.904059 L20.25,23.904059 L20.25,22.6863469 C20.25,21.1365314 20.5875,19.9926199 21.3375,19.1808118 C22.0875,18.3690037 23.1375,18 24.525,18 C25.0125,18 25.4625,18.0369004 25.8,18.0738007 C26.175,18.1107011 26.5125,18.2214022 27,18.3321033 L27,20.1402214 C26.475,20.0295203 26.1375,19.9557196 25.8375,19.8819188 C25.5375,19.8081181 25.2,19.7712177 24.825,19.7712177 C23.175,19.7712177 22.5375,20.7675277 22.5375,22.7601476 L22.5375,23.8671587 L27,23.8671587 L27,23.904059 Z" id="Fill-4" fill="#FFFFFF"></path>
                <path d="M30.2966507,38 L28,38 L28,24.3938619 L30.2966507,24.3938619 L30.2966507,27.9386189 C30.4880383,27.3657289 30.8325359,26.8644501 31.215311,26.3631714 C31.5980861,25.8976982 32.0574163,25.4680307 32.5550239,25.1457801 C33.0526316,24.7877238 33.6267943,24.5370844 34.2009569,24.3580563 C34.8133971,24.1790281 35.4641148,24 36,24 L36,26.1483376 C35.1961722,26.1483376 34.0861244,26.5063939 33.7416268,26.7212276 C33.0909091,27.0792839 32.4019139,27.3657289 31.9043062,27.9028133 C31.3684211,28.4398977 30.9473684,29.084399 30.6794258,29.8721228 C30.3732057,30.6598465 30.2200957,31.5549872 30.2966507,32.5933504 L30.2966507,38 Z" id="Fill-6" fill="#FFFFFF"></path>
                <path d="M48.8393352,30.2418136 C48.8033241,29.6423174 48.6952909,29.0428212 48.4792244,28.4785894 C48.2631579,27.9143577 48.1911357,27.4559194 47.8310249,27.0327456 C47.4709141,26.6095718 47.0387812,26.2921914 46.498615,26.0453401 C45.9944598,25.7984887 45.3822715,25.6574307 44.6980609,25.6574307 C44.0858726,25.6574307 43.5457064,25.7632242 43.0415512,26.0100756 C42.5373961,26.256927 42.0692521,26.5743073 41.7091413,26.9622166 C41.3130194,27.3853904 40.9889197,27.8438287 40.7728532,28.4080605 C40.5207756,28.9722922 40.3047091,29.5717884 40.232687,30.2418136 L48.8393352,30.2418136 Z M40.8088643,33.627204 C41.0969529,34.1914358 41.4570637,34.6498741 41.8891967,35.0730479 C42.3213296,35.4609572 42.8254848,35.743073 43.365651,35.9546599 C43.9058172,36.1662469 44.4819945,36.2367758 45.0941828,36.2367758 C46.066482,36.2367758 46.8587258,36.0604534 47.5429363,35.7078086 C48.2271468,35.3551637 48.8393352,34.8967254 49.4155125,34.3324937 L50.6759003,35.4609572 C49.9916898,36.2367758 49.199446,36.836272 48.299169,37.2947103 C47.398892,37.7531486 46.3185596,38 45.0221607,38 C44.0858726,38 43.1855956,37.8236776 42.3573407,37.5062972 C41.5290859,37.1536524 40.8088643,36.6952141 40.1606648,36.0604534 C39.5484765,35.4609572 39.0443213,34.6498741 38.7202216,33.768262 C38.3240997,32.7103275 38,31.9697733 38,30.9471033 C38,29.9596977 38.3961219,28.6196474 38.7202216,27.7732997 C39.0443213,26.9269521 39.4044321,26.6448363 39.9806094,26.0100756 C40.5567867,25.3753149 41.2770083,24.8816121 42.0692521,24.5289673 C42.8614958,24.1763224 43.7617729,24 44.6980609,24 C45.7063712,24 46.6066482,24.1763224 47.398892,24.5642317 C48.1911357,24.9521411 48.8753463,25.4458438 49.4155125,26.0806045 C49.9556787,26.7153652 50.3878116,27.4911839 50.6759003,28.3375315 C51,29.1838791 51,29.9596977 51,30.9471033 L51,31.2997481 L51,32.0050378 L40.1966759,32.0050378 C40.2686981,32.7455919 40.5207756,33.0982368 40.8088643,33.627204 L40.8088643,33.627204 Z" id="Fill-8" fill="#FFFFFF"></path>
                <path d="M63.5870307,35.6604643 C63.3242321,36.1566543 62.9488055,36.5823144 62.4982935,36.9367358 C62.0477816,37.2911572 61.5221843,37.5388977 60.883959,37.7161085 C60.2832765,37.8933192 59.6075085,38 58.894198,38 C57.8430034,38 56.8293515,37.8227893 55.778157,37.4683679 C54.7269625,37.1139465 53.7883959,36.6174021 53,36.0148857 L54.0887372,34.5617579 C54.8771331,35.1288322 55.665529,35.5541379 56.5290102,35.837675 C57.3549488,36.1212121 58.21843,36.2984228 59.0443686,36.2984228 C59.9078498,36.2984228 60.6211604,36.1212121 61.1843003,35.7313486 C61.7474403,35.3418394 62.0102389,34.8102073 62.0102389,34.1718944 L62.0102389,34.1364522 C62.0102389,33.817473 61.8976109,33.5339358 61.7098976,33.2858409 C61.5221843,33.0381003 61.2593857,32.825093 60.9215017,32.6478823 C60.5836177,32.4706716 60.2081911,32.2934609 59.7576792,32.1520468 C59.3071672,32.0099238 58.894198,31.8681552 58.4061433,31.7618288 C57.8430034,31.6204147 57.2798635,31.443204 56.7167235,31.2659933 C56.1535836,31.0887826 55.6279863,30.8403332 55.1774744,30.5571505 C54.7269625,30.2732589 54.3515358,29.9188375 54.0887372,29.4935318 C53.7883959,29.0682261 53.4880546,28.6429204 53.4880546,28.040404 L53.5255973,27.8986355 C53.5255973,27.3315612 53.7883959,26.7999291 54.0511945,26.3037391 C54.2764505,25.8075492 54.6143345,25.4176856 55.0648464,25.0632642 C55.5153584,24.7088428 56.003413,24.4607478 56.6040956,24.2835371 C57.2047782,24.1063264 57.8430034,24 58.556314,24 C59.4573379,24 60.3208191,24.1417686 61.2593857,24.3898635 C62.1604096,24.6734007 62.9863481,25.0278221 63.7372014,25.4885699 L62.7610922,27.012582 C62.0853242,26.6227184 61.4095563,26.3037391 60.6587031,26.0556442 C59.9453925,25.8075492 59.2320819,25.7012228 58.5187713,25.7012228 C57.6552901,25.7012228 56.9795222,25.8784335 56.4914676,26.268297 C56.003413,26.6581606 55.7406143,27.1189084 55.7406143,27.6505405 L55.7406143,27.6859826 C55.7406143,28.0049619 55.8532423,28.288499 56.0409556,28.5011519 C56.2286689,28.7492469 56.5290102,28.9264576 56.8668942,29.1036683 C57.2047782,29.280879 57.6177474,29.4226475 58.0307167,29.5644161 C58.4812287,29.7061847 58.9317406,29.8483076 59.4197952,29.9897218 C59.9829352,30.1314903 60.5085324,30.308701 61.0716724,30.5213539 C61.5972696,30.6985646 62.1228669,30.9466596 62.5358362,31.2659933 C62.9863481,31.549176 63.3242321,31.9035974 63.5870307,32.3292575 C63.8498294,32.7542088 64,33.2503987 64,33.8883573 L64,33.9241538 C64,34.5617579 63.8498294,35.1646287 63.5870307,35.6604643" id="Fill-10" fill="#FFFFFF"></path>
                <path d="M69.1752266,38 L67,38 L67,20.2222222 C67,19.0740741 68.0151057,18 69.1389728,18 L69.1752266,26.0740741 C69.6465257,25.2962963 70.0453172,24.962963 70.8066465,24.4074074 C71.5679758,23.8888889 72.6918429,23.5185185 73.8882175,23.5185185 C74.7220544,23.5185185 75.3021148,23.7037037 75.9546828,24 C76.6072508,24.2592593 77.1510574,24.6666667 77.6223565,25.1481481 C78.0936556,25.6666667 78.4199396,26.2592593 78.673716,26.9259259 C78.9274924,27.6296296 79,28.2222222 79,29.0740741 L79,37.962963 L76.8247734,37.962963 L76.8247734,29.8518519 C76.8247734,28.5555556 76.6435045,27.4444444 75.9909366,26.6666667 C75.3383686,25.8888889 74.4320242,25.4074074 73.1993958,25.4074074 C72.6193353,25.4074074 72.0392749,25.6296296 71.5317221,25.8518519 C71.0241692,26.0740741 70.5891239,26.3703704 70.2265861,26.7407407 C69.8640483,27.1481481 69.8277946,27.3333333 69.6102719,27.8888889 C69.3927492,28.4444444 69.2477341,29.2222222 69.2477341,29.8888889 L69.2477341,38 L69.1752266,38 Z" id="Fill-12" fill="#FFFFFF"></path>
                <path d="M93.4871795,28.4911591 C93.2,27.9253438 92.8410256,27.4302554 92.374,27.0412574 C91.9076923,26.6522593 91.3692308,26.3339882 90.7586154,26.1218075 C90.1487179,25.9096267 89.3948718,25.7328094 88.7487179,25.7328094 C88.1025641,25.7328094 87.6,25.9096267 87.025641,26.1218075 C86.4509231,26.3339882 85.9487179,26.6522593 85.5179487,27.0412574 C85.0871795,27.4302554 84.7282051,27.9253438 84.5128205,28.4911591 C84.2615385,29.0569745 84.0820513,29.6581532 84.0820513,30.3300589 C84.0820513,31.0373281 84.2615385,31.6738703 84.5128205,32.2400393 C84.7641026,32.805501 85.1230769,33.300943 85.5534872,33.6895874 C85.9846154,34.1139489 86.4871795,34.3968566 87.0615385,34.6444008 C87.6358974,34.8565815 88.1025641,34.9273084 88.7487179,34.9273084 C89.3948718,34.9273084 90.1487179,34.8565815 90.7586154,34.6444008 C91.3692308,34.43222 91.9076923,34.1139489 92.374,33.7249509 C92.8410256,33.3359528 93.2,32.8408644 93.4871795,32.2750491 C93.774359,31.7095874 93.9179487,31.0726916 93.9179487,30.4007859 C93.9179487,29.6935167 93.774359,29.0569745 93.4871795,28.4911591 M95.3897436,38.3222004 C95.0663077,39.1359136 94.6,39.8074656 93.9893846,40.3736346 C93.3794872,40.9040864 92.6615385,41.3280943 91.8,41.6113556 C90.9381026,41.8939096 89.825641,42 88.7842564,42 C87.6358974,42 86.7025641,41.8585462 85.6615385,41.540275 C84.6205128,41.2220039 83.6512821,40.762279 82.7179487,40.1257367 L83.6512821,38.5697446 C84.4410256,39.1359136 85.2666667,39.5599214 86.1282051,39.8431827 C86.9893846,40.1257367 87.7794872,40.2318271 88.7842564,40.2318271 C90.2923077,40.2318271 91.6205128,39.8781925 92.5534872,39.1001965 C93.4509231,38.2868369 93.9179487,37.0844794 93.8098974,35.5284872 L93.8098974,33.9371316 C93.2714359,34.7154813 92.5534872,35.3870334 91.6923077,35.9532024 C90.8307692,36.518664 90.0406667,36.7308448 88.7842564,36.7308448 C87.9589744,36.7308448 86.8820513,36.6604715 86.1282051,36.3418468 C85.374,36.0235756 84.6923077,35.6345776 84.0820513,35.1041257 C83.4717949,34.5736739 83.0051282,33.9017682 82.6461538,33.1241257 C82.2871795,32.345776 82,31.3559528 82,30.3654224 C82,29.3752456 82.2871795,28.5618861 82.6461538,27.78389 C83.0051282,27.0058939 83.4717949,26.3339882 84.0820513,25.7681729 C84.6923077,25.237721 85.374,24.8133595 86.1641026,24.4950884 C86.9538462,24.2121807 87.6358974,24 88.4615385,24 C89.1076923,24 89.7538462,24.1414538 90.2923077,24.2829077 C90.8307692,24.4243615 91.2970769,24.6365422 91.7641026,24.8840864 C92.1945128,25.1316306 92.5897436,25.4145383 92.9487179,25.7328094 C93.3076923,26.0510806 93.6304103,26.4047151 93.8461538,26.7583497 L93.8461538,24.3182711 L96,24.3182711 L96,35.4577603 C95.8564103,36.5540275 95.7128205,37.5088409 95.3897436,38.3222004" id="Fill-14" fill="#FFFFFF"></path>
                <path d="M102.296651,38 L100,38 L100,23.4114713 L102.296651,23.4114713 L102.296651,27.1147132 C102.373206,26.5162095 102.717703,25.9925187 103.100478,25.4688279 C103.483254,24.9825436 103.942584,24.5336658 104.440191,24.1970075 C104.937799,23.8229426 105.511962,23.5610973 106.086124,23.3740648 C106.698565,23.1870324 107.311005,23 108,23 L108,25.244389 C107.23445,25.244389 106.315789,25.5436409 105.626794,25.8428928 C104.937799,26.1047382 104.287081,26.5162095 103.789474,27.0773067 C103.253589,27.638404 102.985646,27.7880299 102.679426,28.6109726 C102.373206,29.4339152 102.296651,30.8553616 102.296651,31.9401496 L102.296651,38 Z" id="Fill-16" fill="#FFFFFF"></path>
                <path d="M112.150442,31.6842105 C111.477876,32.1750877 111.088496,32.9473684 111.088496,33.8245614 C111.088496,34.245614 111.230088,34.5610526 111.40708,34.877193 C111.584071,35.1929825 111.831858,35.4736842 112.150442,35.7192982 C112.469027,35.9645614 112.823009,36.14 113.212389,36.245614 C113.637168,36.3508772 114.061947,36.4210526 114.486726,36.4210526 C115.123894,36.4210526 115.690265,36.3154386 116.256637,36.14 C116.823009,35.9645614 117.283186,35.7192982 117.672566,35.4035088 C118.097345,35.0873684 118.415929,34.7017544 118.628319,34.2803509 C118.876106,33.8245614 118.840708,33.3329825 118.840708,32.7719298 L118.840708,31.3684211 C118.345133,31.2277193 117.920354,31.2631579 117.247788,31.1224561 C116.610619,31.0175439 115.867257,30.9470175 115.017699,30.9470175 C113.814159,30.9470175 112.823009,31.1929825 112.150442,31.6842105 M112.787611,26.2101754 C112.150442,26.385614 111.088496,26.8070175 110.734513,27.1578947 L110.380531,25.4035088 C111.123894,25.0526316 111.79646,24.6666667 112.539823,24.4557895 C113.318584,24.245614 114.345133,24 115.336283,24 C117.176991,24 118.451327,24.6312281 119.442478,25.5084211 C120.433628,26.4210526 120.929204,27.754386 121,29.5435088 L121,37.6842105 L118.876106,37.6842105 L118.876106,35.9298246 C118.415929,36.5263158 117.884956,36.8417544 117.106195,37.2982456 C116.327434,37.754386 115.300885,38 114.132743,38 C113.495575,38 112.893805,37.9298246 112.292035,37.754386 C111.690265,37.5789474 111.159292,37.3333333 110.663717,36.9824561 C110.168142,36.6315789 109.814159,36.2101754 109.530973,35.6838596 C109.247788,35.1575439 109,34.5610526 109,33.8592982 C109,33.1575439 109.247788,32.5259649 109.530973,31.9649123 C109.814159,31.4385965 110.20354,30.9824561 110.734513,30.5961404 C111.265487,30.2105263 111.867257,29.9649123 112.575221,29.754386 C113.283186,29.5789474 114.061947,29.4736842 114.911504,29.4736842 C115.79646,29.4736842 116.539823,29.5087719 117.176991,29.6140351 C117.814159,29.7189474 118.345133,29.7894737 118.946903,29.9649123 L118.946903,29.2631579 C118.946903,28.0701754 118.699115,27.4736842 117.99115,26.8421053 C117.283186,26.245614 116.292035,25.754386 115.053097,25.754386 C114.168142,25.754386 113.460177,26 112.787611,26.2101754" id="Fill-18" fill="#FFFFFF"></path>
                <path d="M134.408648,35.6432161 C134.15119,36.1356784 133.783394,36.5581407 133.342405,36.9098995 C132.900681,37.2616583 132.385766,37.5075377 131.760512,37.6834171 C131.172037,37.8592965 130.546782,38 129.848336,38 C128.818138,38 127.751527,37.7537688 126.722064,37.4020101 C125.691865,37.0502513 124.772373,36.5581407 124,35.959799 L125.066978,34.5175879 C125.838984,35.080402 126.611357,35.5028643 127.457657,35.7839196 C128.266442,36.0653266 129.112743,36.241206 129.921528,36.241206 C130.767828,36.241206 131.466274,36.0653266 132.017969,35.6787437 C132.569664,35.2914573 132.827122,34.7638191 132.827122,34.1306533 L132.827122,34.0958291 C132.827122,33.7788945 132.716783,33.4974874 132.532885,33.2512563 C132.348986,33.0050251 132.091529,32.7939698 131.760512,32.6180905 C131.429494,32.4422111 131.061698,32.2663317 130.620342,32.1256281 C130.178985,31.9852764 129.774409,31.8442211 129.296641,31.7386935 C128.744946,31.5979899 128.193251,31.4221106 127.641556,31.2462312 C127.089861,31.0703518 126.574577,30.8241206 126.133221,30.5427136 C125.691865,30.2613065 125.324068,29.9095477 125.066978,29.4874372 C124.772373,29.0653266 124.699182,28.4321608 124.699182,27.798995 L124.662034,27.8693467 C124.662034,27.3065327 124.772373,26.7788945 125.029831,26.2864322 C125.250877,25.7939698 125.581526,25.4070352 126.022882,25.0552764 C126.464238,24.7035176 126.942374,24.4572864 127.530849,24.281407 C128.119324,24.1055276 128.744946,24 129.443392,24 C130.326104,24 131.172037,24.1407035 132.091529,24.3869347 C132.974609,24.6683417 133.783394,25.0201005 134.518987,25.4773869 L133.562716,26.9899497 C132.900681,26.6030151 132.239015,26.2864322 131.503422,26.040201 C130.80424,25.7939698 130.105426,25.6884422 129.406612,25.6884422 C128.561048,25.6884422 127.898646,25.8643216 127.42051,26.2512563 C126.942374,26.638191 126.942374,27.201005 126.942374,27.7638191 C126.942374,28.4673367 127.457657,28.959799 127.788307,29.1356784 C128.119324,29.3115578 128.5239,29.4522613 128.928844,29.5929648 C129.369833,29.7336683 129.811189,29.8747236 130.289325,30.0150754 C130.84102,30.1557789 131.355935,30.3316583 131.90763,30.5427136 C132.422914,30.718593 132.937461,30.9648241 133.342405,31.2817588 C133.783394,31.5628141 134.114411,31.9145729 134.371869,32.3370352 C134.629694,32.758794 134.997491,33.1809045 134.997491,33.7788945 L134.997491,34.1306533 C135.033903,34.7638191 134.666106,35.1511055 134.408648,35.6432161" id="Fill-20" fill="#FFFFFF"></path>
                <path d="M147.538678,35.5 C147.278377,36.0223881 146.905985,36.4705224 146.459116,36.8436567 C146.011873,37.216791 145.490525,37.4776119 144.857832,37.6641791 C144.261634,37.8507463 143.516851,38 142.809679,38 C141.766611,38 140.798393,37.738806 139.756069,37.3656716 C138.713373,36.9925373 137.782394,36.4705224 137,35.8358209 L138.080308,34.3059701 C138.861957,34.9029851 139.644352,35.3511194 140.500852,35.6492537 C141.320113,35.9477612 141.990418,36.0973881 142.846546,36.0973881 C143.703046,36.0973881 144.559547,35.9108209 145.118134,35.5 C145.676721,35.0895522 145.825678,34.5298507 145.825678,33.8585821 C145.825678,33.5223881 145.862917,33.1492537 145.676721,32.8880597 C145.490525,32.6268657 145.230224,32.4029851 144.894699,32.2164179 C144.559547,32.0298507 144.187155,31.8432836 143.740658,31.6940299 C143.293788,31.5447761 142.883785,31.3955224 142.399676,31.2835821 C141.841089,31.1343284 141.282502,30.9477612 140.723915,30.761194 C140.165327,30.5746269 139.644352,30.313806 139.197482,30.0149254 C138.75024,29.7164179 138.377848,29.3432836 138.117174,28.8955224 C137.819261,28.4477612 137.596199,27.7761194 137.596199,27.1044776 C137.596199,26.5074627 137.782394,26.0223881 138.042696,25.5373134 C138.266503,25.0149254 138.601283,24.6044776 139.048153,24.2313433 C139.495023,23.858209 139.979132,23.5970149 140.57533,23.4104478 C141.170784,23.2238806 141.729372,23 142.437288,23 C143.330655,23 144.261634,23.261194 145.155745,23.5597015 C146.049113,23.858209 146.868374,24.2313433 147.613157,24.7164179 L146.645311,26.3208955 C145.975007,25.9104478 145.30433,25.5746269 144.559547,25.3134328 C143.852375,25.0522388 143.107592,24.9029851 142.399676,24.9029851 C141.543176,24.9029851 140.91011,25.1641791 140.426001,25.5373134 C139.942265,25.9477612 139.792936,26.5447761 139.792936,27.141791 C139.792936,27.4776119 139.756069,27.7014925 139.979132,27.9253731 C140.165327,28.1865672 140.463241,28.3731343 140.798393,28.5597015 C141.133918,28.7462687 141.543176,28.8955224 141.952806,29.0447761 C142.399676,29.194403 142.846546,29.3432836 143.330655,29.4925373 C143.889242,29.641791 144.410963,29.8283582 144.96955,30.0522388 C145.490525,30.238806 146.011873,30.5003731 146.421504,30.8358209 C146.868374,31.1343284 147.203899,31.5074627 147.464573,31.9552239 C147.724874,32.4029851 147.985548,32.8507463 147.985548,33.4854478 C148.060027,34.1940299 147.836964,34.9779851 147.538678,35.5" id="Fill-22" fill="#FFFFFF"></path>
            </g>
        </g>
    </g>
</svg>