<?xml version="1.0" encoding="UTF-8"?>
<svg width="86px" height="132px" viewBox="0 0 86 132" version="1.1" xmlns="http://www.w3.org/2000/svg" xmlns:xlink="http://www.w3.org/1999/xlink">
    <!-- Generator: sketchtool 53.2 (72643) - https://sketchapp.com -->
    <title>A21F0470-47C7-4A19-975D-F618E3CF4F8D</title>
    <desc>Created with sketchtool.</desc>
    <g id="Page-1" stroke="none" stroke-width="1" fill="none" fill-rule="evenodd">
        <g id="Homepage" transform="translate(-1354.000000, -2183.000000)" fill="#76C043">
            <path d="M1440,2225.23745 C1433.66116,2249.0593 1429.35568,2276.05872 1426.50052,2303.71241 C1421.69646,2284.65403 1415.73524,2265.73849 1408.33715,2248.1978 C1414.29261,2224.20632 1420.7281,2202.3498 1427.05862,2183 L1419.59973,2183 C1413.99372,2201.60562 1409.21591,2221.15055 1405.15428,2240.92823 C1395.37465,2219.46006 1383.28131,2200.42272 1368.32256,2186.24835 C1368.32256,2186.24835 1384.98378,2210.81055 1402.92122,2252.18203 C1400.07054,2267.07507 1397.60771,2282.02104 1395.47769,2296.71513 C1386.10895,2274.07107 1372.78804,2256.59478 1354,2249.28759 C1354,2249.28759 1375.62209,2262.42829 1392.90094,2315 L1401.90678,2315 C1400.40591,2309.96997 1398.7604,2305.09617 1396.95744,2300.42388 C1399.66476,2286.00145 1402.63065,2272.12551 1405.76103,2258.84962 C1412.54725,2275.07988 1419.3994,2293.63386 1425.49887,2314.10087 C1425.47199,2314.39994 1425.44575,2314.69965 1425.41951,2315 L1440,2315 L1440,2279.88226 C1437.41236,2289.00429 1435.21195,2298.64029 1433.34818,2308.59577 C1435.34635,2293.57328 1437.59093,2279.87397 1440,2267.38243 L1440,2225.23745 Z" id="Grass-blades"></path>
        </g>
    </g>
</svg>