<?xml version="1.0" encoding="UTF-8"?>
<svg width="99px" height="99px" viewBox="0 0 99 99" version="1.1" xmlns="http://www.w3.org/2000/svg" xmlns:xlink="http://www.w3.org/1999/xlink">
    <!-- Generator: sketchtool 53.2 (72643) - https://sketchapp.com -->
    <title>3722DBB7-6268-43A9-A3E4-8E0CCA093AE1</title>
    <desc>Created with sketchtool.</desc>
    <defs>
        <polygon id="path-1" points="0 0 57 0 57 46 0 46"></polygon>
    </defs>
    <g id="Page-1" stroke="none" stroke-width="1" fill="none" fill-rule="evenodd">
        <g id="Why-Freshgrass?" transform="translate(-118.000000, -453.000000)">
            <g id="Purpose-led-icon_WEB" transform="translate(118.000000, 453.000000)">
                <g id="Group">
                    <circle id="Oval" fill="#77BF44" cx="49.5" cy="49.5" r="49.5"></circle>
                    <circle id="Oval" stroke="#FFFFFF" stroke-width="5" cx="49.5" cy="49.5" r="39.5"></circle>
                    <circle id="Oval" stroke="#77BF44" stroke-width="5" cx="49.5" cy="49.5" r="34.5"></circle>
                </g>
                <g id="Group-3" transform="translate(26.000000, 26.000000)">
                    <mask id="mask-2" fill="white">
                        <use xlink:href="#path-1"></use>
                    </mask>
                    <g id="Clip-2"></g>
                    <path d="M48.6280755,23.9961501 L51.9901814,28.4530366 L47.2216687,28.4530366 L43.1080987,23 L47.2216687,17.5469634 L51.9901814,17.5469634 L48.6280755,22.0038499 C48.1827634,22.5942348 48.1827634,23.4058758 48.6280755,23.9961501 L48.6280755,23.9961501 Z M23.1339608,24.6602502 L28.3579164,24.6602502 C27.6497589,26.8575361 25.5760521,28.4530366 23.1339608,28.4530366 C20.109624,28.4530366 17.6491637,26.0068239 17.6491637,23 C17.6491637,19.9931761 20.109624,17.5469634 23.1339608,17.5469634 C25.5761634,17.5469634 27.6497589,19.1424639 28.3579164,21.3397498 L23.1339608,21.3397498 C22.2117196,21.3397498 21.4640406,22.0830991 21.4640406,23 C21.4640406,23.9169009 22.2117196,24.6602502 23.1339608,24.6602502 L23.1339608,24.6602502 Z M31.7980633,21.3397498 C31.0150934,17.2934986 27.4288842,14.2264629 23.1339608,14.2264629 C18.2680361,14.2264629 14.3093233,18.1622522 14.3093233,23 C14.3093233,27.8377478 18.2680361,31.7735371 23.1339608,31.7735371 C27.4288842,31.7735371 31.0150934,28.7066121 31.7980633,24.6602502 L35.6629266,24.6602502 C34.8432184,30.8073821 29.5374367,35.5662127 23.1339608,35.5662127 C16.1644933,35.5662127 10.4945577,29.928999 10.4945577,23 C10.4945577,16.071001 16.1644933,10.4337873 23.1339608,10.4337873 C29.5374367,10.4337873 34.8432184,15.1926179 35.6629266,21.3397498 L31.7980633,21.3397498 Z M42.3884744,27.580409 C40.2792539,36.3726516 32.2972581,42.6794995 23.1339608,42.6794995 C12.2194739,42.6794995 3.33984035,33.8512849 3.33984035,23 C3.33984035,12.1487151 12.2194739,3.32050048 23.1339608,3.32050048 C32.2972581,3.32050048 40.2792539,9.62734841 42.3885857,18.419591 L40.5869645,20.8081376 L40.1857384,21.3397498 L39.0262571,21.3397498 C38.1887365,13.3571559 31.3811399,7.11328681 23.1339608,7.11328681 C14.3229053,7.11328681 7.15471732,14.240077 7.15471732,23 C7.15471732,31.759923 14.3229053,38.8867132 23.1339608,38.8867132 C31.3810286,38.8867132 38.1887365,32.6428441 39.0262571,24.6602502 L40.1857384,24.6602502 L40.5869645,25.1918624 L42.3884744,27.580409 Z M52.0514118,23 L56.6659579,16.8828633 C57.0454751,16.3798075 57.1065942,15.7067421 56.8237097,15.1442493 C56.5408252,14.5817565 55.9625875,14.2264629 55.3300218,14.2264629 L46.3867086,14.2264629 C45.8611291,14.2264629 45.3661647,14.472512 45.0507725,14.890563 L44.8739836,15.1249904 C41.5950397,6.18642445 32.9437399,0 23.1339608,0 C10.3778859,0 0,10.3177911 0,23 C0,35.6822089 10.3778859,46 23.1339608,46 C32.9437399,46 41.5950397,39.8135756 44.8739836,30.8750096 L45.0507725,31.109437 C45.3661647,31.527488 45.8611291,31.7735371 46.3867086,31.7735371 L55.3300218,31.7735371 C55.9625875,31.7735371 56.5407139,31.4182435 56.8237097,30.8557507 C57.1065942,30.2932579 57.0454751,29.6203032 56.6659579,29.1171367 L52.0514118,23 Z" id="Fill-1" fill="#FFFFFF" mask="url(#mask-2)"></path>
                </g>
            </g>
        </g>
    </g>
</svg>