<?xml version="1.0" encoding="UTF-8"?>
<svg width="99px" height="99px" viewBox="0 0 99 99" version="1.1" xmlns="http://www.w3.org/2000/svg" xmlns:xlink="http://www.w3.org/1999/xlink">
    <!-- Generator: sketchtool 53.2 (72643) - https://sketchapp.com -->
    <title>6DC4BA99-19D7-4155-9787-98390DBA4B23</title>
    <desc>Created with sketchtool.</desc>
    <g id="Page-1" stroke="none" stroke-width="1" fill="none" fill-rule="evenodd">
        <g id="Why-Freshgrass?" transform="translate(-541.000000, -453.000000)">
            <g id="Enablers-icon_WEB" transform="translate(541.000000, 453.000000)">
                <g id="Group-2">
                    <circle id="Oval" fill="#77BF44" cx="49.5" cy="49.5" r="49.5"></circle>
                    <circle id="Oval" stroke="#FFFFFF" stroke-width="5" cx="49.5" cy="49.5" r="39.5"></circle>
                </g>
                <g id="Group-3" transform="translate(26.000000, 26.000000)" fill="#FFFFFF">
                    <path d="M40.8341027,34.3473286 C41.451895,34.9584681 41.2131316,36.2669637 40.3227947,37.1472804 L34.8759416,42.5319149 C33.9540266,43.4433604 32.4544346,43.4433604 31.5325196,42.5319149 L30.033662,41.0499879 C31.981773,40.2279354 33.7661186,39.0414136 35.2789294,37.5456918 L39.6736998,33.2004664 L40.8341027,34.3473286 Z M19.9151794,39.1182825 C19.9029704,39.1151061 19.8911286,39.1137447 19.8793786,39.1108406 C19.8510134,39.1041248 19.8230154,39.097772 19.794742,39.0927805 C19.7739041,39.0892411 19.7531581,39.0867907 19.731953,39.0838866 C19.7086366,39.0810732 19.6853203,39.0782598 19.6616367,39.0764447 C19.6369434,39.0743574 19.6121582,39.0732683 19.5874649,39.0729053 C19.5673614,39.0721793 19.5476251,39.071907 19.5276134,39.0721793 C19.5009923,39.0725423 19.4748303,39.0739944 19.4486682,39.0760817 C19.4296663,39.0775338 19.4106643,39.0789858 19.3916624,39.0810732 C19.3658675,39.0838866 19.340348,39.087789 19.3149203,39.0920545 C19.2948168,39.0952309 19.2751723,39.0991333 19.2550688,39.1033987 C19.2317524,39.1083902 19.2088032,39.1137447 19.185854,39.1200975 C19.1640064,39.1257243 19.142067,39.1321679 19.1202193,39.1388837 C19.0997487,39.1455995 19.0801042,39.1526783 19.0600007,39.1597572 C19.0366843,39.1686511 19.0133679,39.177545 18.9907859,39.1874372 C18.9725183,39.1952421 18.954159,39.203773 18.9362586,39.2122132 C18.9133094,39.2232852 18.8907274,39.2346295 18.8685126,39.2469721 C18.850245,39.256955 18.8322529,39.2675733 18.8143525,39.2785546 C18.794249,39.2909879 18.7738701,39.3033305 18.7541338,39.3168529 C18.7340303,39.3306475 18.714294,39.3451682 18.6949249,39.3600519 C18.6787687,39.3721222 18.6630714,39.3841926 18.6472824,39.3969889 C18.6243332,39.4161381 18.6023938,39.4359225 18.5809133,39.4565238 C18.5726516,39.4643286 18.5637473,39.4710444 18.5554856,39.4792123 L15.4677177,42.5319149 C14.5458027,43.4433604 13.0462107,43.4433604 12.1242957,42.5319149 L6.67780974,37.1472804 C6.21524581,36.6898787 5.94306839,36.1046042 5.91185749,35.4987285 C5.88358408,34.9467608 6.06323036,34.4494272 6.41857566,34.0984803 L8.3642082,32.1745797 C8.39395035,32.1749427 8.4237843,32.1766671 8.45389365,32.1766671 L8.45426083,32.1766671 C9.84837838,32.1766671 11.1593281,31.6395831 12.1457761,30.6647003 C13.6550986,29.1722458 14.0441334,26.9863375 13.314808,25.1350404 C14.2944631,24.9308432 15.1948059,24.4522958 15.9199086,23.7361536 C16.7478236,22.9168237 17.2391199,21.8883959 17.3929713,20.8213067 C17.8139513,20.9280338 18.2509957,20.9836662 18.6967608,20.9836662 L18.697128,20.9836662 C20.0912456,20.9836662 21.4021953,20.4469452 22.3887351,19.4720625 C23.374816,18.4971797 23.9180693,17.2007544 23.9180693,15.822015 C23.9180693,15.3821289 23.8620733,14.9506829 23.7548547,14.5352097 C24.8665136,14.3792031 25.893444,13.8750629 26.7013474,13.075699 C28.7370326,11.0634945 28.7370326,7.78889759 26.7017146,5.77596708 L25.4925675,4.58055135 L26.6041346,3.48197047 C27.5414714,2.55564127 29.0662158,2.55564127 30.0028182,3.48160746 C30.4567533,3.9303875 30.7067159,4.52700631 30.7067159,5.16165118 C30.7067159,5.79620529 30.4567533,6.3928241 30.0028182,6.84160414 C29.7277951,7.11350404 29.5901,7.47016847 29.5901,7.82683289 C29.5901,8.1831343 29.7274279,8.53970797 30.0028182,8.81160787 C30.5532317,9.35586145 31.4450373,9.35586145 31.9954507,8.81160787 C32.9320532,7.88564168 34.4567057,7.88527867 35.3940425,8.81160787 C36.3310122,9.73830009 36.330645,11.2457291 35.3936754,12.1720583 C35.1186522,12.4439582 34.9809571,12.8006227 34.9809571,13.1568333 C34.9809571,13.5134977 35.118285,13.8697991 35.3936754,14.141699 C35.9440888,14.6858619 36.8358944,14.6858619 37.3863078,14.1420621 C37.8403347,13.6931913 38.4441738,13.446158 39.0860168,13.445795 C39.7278599,13.445795 40.3313318,13.692919 40.7849915,14.141699 C41.2392937,14.5908421 41.4892563,15.1874609 41.4892563,15.822015 C41.4892563,16.448129 41.2457195,17.0373059 40.803259,17.4836356 C40.7968332,17.4899884 40.7903157,17.496069 40.7842571,17.5024218 L38.7636266,19.5004686 C38.2605803,19.9978022 38.211469,20.7879999 38.6492478,21.3425087 L38.7216755,21.4342613 C39.1584445,21.9876811 39.9437659,22.1330695 40.5532964,21.7739547 C41.4981606,21.2173585 42.7019834,21.3665586 43.4807872,22.1362459 C44.4177568,23.0629381 44.4177568,24.5703671 43.4807872,25.4966963 L40.246787,28.6936075 C40.2406366,28.6999603 40.2342108,28.7064039 40.2280605,28.7127567 L33.2862969,35.5756881 C29.8034357,39.019088 24.6799825,40.3765002 19.9151794,39.1182825 L19.9151794,39.1182825 Z M3.53377036,25.511217 C3.52835435,25.5054995 3.52303014,25.5002358 3.51761413,25.4948813 C2.58248043,24.5685521 2.58321481,23.0625751 3.51945007,22.1369719 C3.97338509,21.6881011 4.57685706,21.4410679 5.21879187,21.4410679 C5.86063489,21.4410679 6.46447404,21.6881011 6.91840907,22.1372442 L10.1528683,25.3346092 C11.0898379,26.2609384 11.0898379,27.7683674 10.1531437,28.6946966 C9.69920863,29.1434766 9.09573666,29.3906006 8.45426083,29.3906006 L8.45389365,29.3906006 C8.3359348,29.3906006 8.2193529,29.3820697 8.10460694,29.3657339 C8.09597804,29.3640096 8.08744094,29.3629206 8.07881204,29.3614685 C7.58393566,29.2853256 7.12715493,29.0590751 6.76455769,28.7049518 C6.76097761,28.7010494 6.75703035,28.69751 6.75345028,28.6936075 L3.53377036,25.511217 Z M6.215613,14.141699 C6.66918084,13.6931913 7.27237742,13.446158 7.91422043,13.446158 C8.55606345,13.446158 9.15953542,13.6931913 9.61356224,14.1420621 L13.9312233,18.4106909 C14.8635113,19.3373831 14.8616754,20.8411819 13.9269089,21.7661498 C13.4729738,22.2145669 12.8690429,22.4616908 12.2271999,22.4616908 C11.5853569,22.4616908 10.9818849,22.2145669 10.5282253,21.7657868 C10.5225339,21.7604323 10.5171179,21.7548055 10.5114265,21.749451 L6.22883173,17.5155811 C6.2242419,17.5109527 6.21956026,17.5059612 6.21524581,17.5016957 C5.76131078,17.0529157 5.51134818,16.4566599 5.51134818,15.822015 C5.51098099,15.1874609 5.76131078,14.5908421 6.215613,14.141699 L6.215613,14.141699 Z M11.5996772,12.1656148 C10.6692251,11.2386503 10.6713364,9.73584973 11.6058275,8.81197089 C12.0601298,8.36319084 12.6639689,8.11606687 13.3058119,8.11606687 C13.9470124,8.11606687 14.54975,8.36282783 15.003685,8.81133561 C15.0040522,8.81133561 15.0044194,8.81160787 15.0044194,8.81197089 C15.0062553,8.81342296 15.0076322,8.81487503 15.009101,8.81623634 L19.3167562,13.0749729 C19.3192347,13.0777863 19.3224476,13.0805997 19.3252933,13.0835038 L20.3957355,14.141699 C20.8496705,14.5904791 21.0999085,15.1870979 21.0999085,15.822015 C21.0999085,16.4566599 20.8500377,17.0532787 20.3960109,17.5016957 C19.9420758,17.9505665 19.3386039,18.1975997 18.6967608,18.1975997 C18.0549178,18.1975997 17.4513541,17.9505665 16.9977862,17.5016957 C16.992003,17.496069 16.9863116,17.4907145 16.9805284,17.4854507 L15.9238558,16.4403241 C15.9223871,16.438872 15.9209183,16.4375107 15.9195414,16.4356956 L11.6061947,12.1720583 L11.6058275,12.1716953 L11.5996772,12.1656148 Z M16.997419,3.48197047 C17.4513541,3.03319043 18.0549178,2.78606645 18.6967608,2.78606645 C19.3386039,2.78606645 19.9420758,3.03319043 20.3960109,3.48197047 L24.7087149,7.74560779 C25.6456845,8.67230001 25.6456845,10.179729 24.7087149,11.1060582 C24.2547799,11.5548383 23.6512161,11.8019623 23.0097403,11.8019623 L23.0093731,11.8019623 C22.3675301,11.8015992 21.7644253,11.5548383 21.3103985,11.1060582 L21.3086543,11.1042432 L16.9985206,6.84305621 C16.9949405,6.83951679 16.9917276,6.83597737 16.9877804,6.83280097 C16.0604494,5.9050197 16.0636623,4.40476026 16.997419,3.48197047 L16.997419,3.48197047 Z M42.257687,30.6459142 L45.4730525,27.4667001 C47.5087377,25.4544956 47.5091049,22.179808 45.4734197,20.1666052 C44.8487427,19.5493851 44.0986713,19.1157611 43.2971937,18.8754437 C43.9527144,17.9952176 44.3073253,16.9355704 44.3073253,15.822015 C44.3073253,14.4433664 43.764072,13.1469411 42.777624,12.1720583 C41.7919102,11.1971756 40.4805016,10.6600916 39.0856497,10.6600916 C39.0271751,10.6600916 38.9687924,10.6610899 38.9103178,10.662905 C38.955849,9.28489158 38.4481211,7.89172222 37.3863078,6.84160414 C36.3245864,5.79230285 34.9135783,5.28961475 33.5219392,5.33535492 C33.5236834,5.27790744 33.5247849,5.21973393 33.5247849,5.16201419 C33.5247849,3.78291175 32.9815316,2.4868495 31.9954507,1.51196674 C29.9601327,-0.500237737 26.6479217,-0.500600754 24.6115021,1.51196674 L23.499935,2.61091064 L22.3887351,1.51232976 C21.4025624,0.537083985 20.0912456,0 18.6963937,0 C17.3018171,0 15.9908675,0.537083985 15.0047865,1.51160373 C13.9426979,2.56163105 13.4359797,3.95525418 13.4822453,5.33426587 C13.4234036,5.33217852 13.3646537,5.33000041 13.3058119,5.33000041 C11.9113272,5.33000041 10.6000103,5.86672138 9.61319505,6.84160414 C8.55138182,7.89208524 8.04475544,9.28561761 8.09102101,10.6642663 C8.0318121,10.6621789 7.97297037,10.6600916 7.91385325,10.6600916 C6.51936851,10.6600916 5.20795985,11.1971756 4.22261332,12.1716953 C3.23616523,13.1465781 2.69291195,14.4430033 2.69291195,15.822015 C2.69291195,16.9352073 3.04715568,17.9948546 3.70304361,18.8747176 C2.88972422,19.1172131 2.14424265,19.556101 1.52645039,20.1666052 C-0.504185962,22.1748165 -0.508867597,25.4392489 1.51277267,27.4524516 C1.51782149,27.4578062 1.52287032,27.4627976 1.52791914,27.4680614 L4.74796624,30.6509057 C4.75228069,30.6554434 4.75687053,30.6600719 4.76155216,30.6647003 C4.95487616,30.8561012 5.16141889,31.0294419 5.37796747,31.1865376 L4.42557598,32.1281135 C3.49934657,33.0438245 3.02741938,34.2913332 3.09736852,35.6409405 C3.16410477,36.9366397 3.72810412,38.1710798 4.68481006,39.1169211 L10.131296,44.5019187 C11.1417949,45.5005791 12.4685336,46 13.7956395,46 C15.1227454,46 16.4498513,45.5005791 17.459983,44.5019187 L19.9915543,41.9987334 C21.1465413,42.2436793 22.3231005,42.3681034 23.5006694,42.3681034 C24.6771368,42.3681034 25.8540632,42.2444053 27.008683,41.9993687 L29.5395199,44.5019187 C30.5500188,45.5005791 31.8767575,46 33.2038634,46 C34.5306021,45.9997277 35.8580752,45.5005791 36.8682069,44.5019187 L42.31506,39.1169211 C44.3353233,37.1196004 44.5648153,34.0963022 42.826368,32.3773248 L41.6663323,31.2304627 L42.2386851,30.6643373 C42.2451109,30.6583475 42.2512613,30.652267 42.257687,30.6459142 L42.257687,30.6459142 Z" id="Fill-1"></path>
                </g>
            </g>
        </g>
    </g>
</svg>