<?xml version="1.0" encoding="UTF-8"?>
<svg width="99px" height="99px" viewBox="0 0 99 99" version="1.1" xmlns="http://www.w3.org/2000/svg" xmlns:xlink="http://www.w3.org/1999/xlink">
    <!-- Generator: sketchtool 53.2 (72643) - https://sketchapp.com -->
    <title>BCBFAA6D-D270-469F-8BEC-BB3D4EA10D07</title>
    <desc>Created with sketchtool.</desc>
    <g id="Page-1" stroke="none" stroke-width="1" fill="none" fill-rule="evenodd">
        <g id="Homepage" transform="translate(-955.000000, -673.000000)">
            <g id="Rigor-icon_WEB" transform="translate(955.000000, 673.000000)">
                <circle id="Oval" fill="#77BF44" cx="49.5" cy="49.5" r="49.5"></circle>
                <circle id="Oval" stroke="#FFFFFF" stroke-width="5" cx="49.5" cy="49.5" r="39.5"></circle>
                <path d="M29.8085665,53.8077623 L24.3825577,54.8286841 C26.6112519,66.6607338 36.5589347,75.3665555 48.5744009,76 L48.8646715,70.4889933 C39.4009044,69.9903578 31.5643879,63.130473 29.8085665,53.8077623 L29.8085665,53.8077623 Z M51.3725934,56.7483323 L51.3725934,52.3335355 C52.2343341,52.6488781 52.8235518,52.9855064 53.1390633,53.3426319 C53.4545748,53.7005458 53.6123305,54.1522741 53.6123305,54.6986052 C53.6123305,55.8338387 52.8657515,56.5173438 51.3725934,56.7483323 L51.3725934,56.7483323 Z M48.406391,46.8465737 C47.5438615,46.531231 46.9656867,46.1953911 46.6714722,45.8374773 C46.376469,45.4803517 46.2297562,45.0601577 46.2297562,44.5761067 C46.2297562,44.0715585 46.4028931,43.6411158 46.7499557,43.2832019 C47.0974127,42.9260764 47.6491635,42.6950879 48.406391,42.5894482 L48.406391,46.8465737 Z M56.3730561,58.7192238 C56.9512309,58.1831413 57.4035954,57.5579745 57.7301498,56.8429351 C58.0559154,56.1286841 58.2187982,55.3292905 58.2187982,54.4463311 C58.2187982,52.6804124 57.6773017,51.266889 56.5939141,50.2049727 C55.5105265,49.1438448 53.7704807,48.2869012 51.3725934,47.6349303 L51.3725934,42.8732565 C52.0454216,43.0419648 52.7079958,43.2883263 53.3603157,43.6143117 C54.011847,43.9406913 54.6535185,44.313584 55.2849358,44.733778 L57.3984684,41.0442693 C56.5359389,40.4348696 55.626477,39.9358399 54.669294,39.5463918 C53.7121111,39.157732 52.6657961,38.8794421 51.5299547,38.7107338 L51.5299547,36.818678 L48.2490297,36.818678 L48.2490297,38.6476653 C47.2599012,38.753305 46.3555664,38.9685264 45.5352365,39.2941176 C44.715301,39.6204973 44.0152599,40.05094 43.4374795,40.5870224 C42.8585159,41.1231049 42.4116728,41.7486659 42.0961613,42.4633111 C41.7806498,43.1783505 41.6228941,43.9769557 41.6228941,44.8599151 C41.6228941,45.7850515 41.7648742,46.5998181 42.0488346,47.3038205 C42.3331893,48.0082171 42.753214,48.6235294 43.3108805,49.1485749 C43.8681527,49.6744087 44.5733209,50.1316555 45.4252019,50.5203153 C46.2770829,50.9093693 47.2705497,51.2613705 48.406391,51.5767132 L48.406391,56.590661 C47.460251,56.4014554 46.5815515,56.0916313 45.7722645,55.6604002 C44.9621888,55.2295634 44.1260833,54.6879624 43.2635538,54.0363857 L40.8025642,57.6312917 C41.8544006,58.4306853 43.0162717,59.0873863 44.2893605,59.6021831 C45.5612662,60.1177683 46.8812874,60.4591267 48.2490297,60.6270467 L48.2490297,63.8120073 L51.5299547,63.8120073 L51.5299547,60.6901152 C52.5399859,60.5848696 53.4545748,60.364524 54.2749047,60.0278957 C55.0952345,59.6920558 55.7944869,59.2553062 56.3730561,58.7192238 L56.3730561,58.7192238 Z M75.5431396,45.2028502 L70.1171308,46.223772 C71.130317,51.6039115 69.9869823,57.0569739 66.8969417,61.5778047 C63.8069011,66.0986355 59.1400918,69.1460279 53.7570714,70.1590661 L54.7785399,75.582171 C61.6113355,74.2967556 67.5338805,70.4286841 71.4560827,64.6906307 C75.3778904,58.9529715 76.8296377,52.0315949 75.5431396,45.2028502 L75.5431396,45.2028502 Z M59.5885125,25.8376592 C56.5252903,24.6180716 53.2865649,24 49.9630458,24 L49.9630458,29.5184961 C52.5837631,29.5184961 55.1350679,30.0049121 57.5455756,30.964342 L59.5885125,25.8376592 Z M68.9422449,42.2378411 L74.0539254,40.1510612 C72.1273333,35.4378714 68.8740155,31.4208005 64.6453728,28.5338387 L61.5312745,33.0905397 C64.8634701,35.366131 67.4262122,38.5290176 68.9422449,42.2378411 L68.9422449,42.2378411 Z M46.1686258,29.872074 L45.1475518,24.4493633 C33.5667027,26.6279867 24.8704173,36.343299 24,48.0756216 L29.5060698,48.4835961 C30.1923073,39.2424803 37.0440336,31.5891146 46.1686258,29.872074 L46.1686258,29.872074 Z" id="Fill-1" fill="#FFFFFF"></path>
            </g>
        </g>
    </g>
</svg>