<?xml version="1.0" encoding="UTF-8"?>
<svg width="105px" height="105px" viewBox="0 0 105 105" version="1.1" xmlns="http://www.w3.org/2000/svg" xmlns:xlink="http://www.w3.org/1999/xlink">
    <!-- Generator: sketchtool 53.2 (72643) - https://sketchapp.com -->
    <title>B26B00E4-F2B5-415D-9BAF-498269F3044C</title>
    <desc>Created with sketchtool.</desc>
    <g id="Page-1" stroke="none" stroke-width="1" fill="none" fill-rule="evenodd">
        <g id="Contact-us" transform="translate(-952.000000, -533.000000)">
            <g id="Loaction-icon" transform="translate(955.000000, 536.000000)">
                <circle id="Oval" stroke="#FFFFFF" stroke-width="6" cx="49.5" cy="49.5" r="49.5"></circle>
                <path d="M67.0401217,48.1118223 L49.8092717,77.009791 L32.1277578,48.3890879 C30.1360439,45.1581504 29.0561383,41.4306504 29.0561383,37.6093613 C29.0561383,26.3013535 38.2422772,17.0742051 49.5000272,17.0742051 C60.7577772,17.0742051 69.9301689,26.3013535 69.9301689,37.6093613 C69.9301689,41.3173105 68.9215856,44.9495176 67.0401217,48.1118223" id="Fill-1" stroke="#FFFFFF" stroke-width="5"></path>
                <path d="M49.5,26 C55.8411,26 61,31.1589 61,37.5 C61,43.7313389 56.0042722,49 49.5,49 C43.07495,49 38,43.8005944 38,37.5 C38,31.1589 43.1589,26 49.5,26 Z M49.5062344,45 C53.7187032,45 57,41.5718023 57,37.5 C57,33.3782392 53.6314214,30 49.5062344,30 C45.3810474,30 42,33.3782392 42,37.5 C42,41.6321013 45.3594763,45 49.5062344,45 Z" id="Combined-Shape" fill="#FFFFFF"></path>
            </g>
        </g>
    </g>
</svg>