<?xml version="1.0" encoding="UTF-8"?>
<svg width="105px" height="105px" viewBox="0 0 105 105" version="1.1" xmlns="http://www.w3.org/2000/svg" xmlns:xlink="http://www.w3.org/1999/xlink">
    <!-- Generator: sketchtool 53.2 (72643) - https://sketchapp.com -->
    <title>69E4807D-F313-4B76-81EB-507E08F1DD75</title>
    <desc>Created with sketchtool.</desc>
    <defs>
        <polygon id="path-1" points="0 0 47 0 47 61 0 61"></polygon>
    </defs>
    <g id="Page-1" stroke="none" stroke-width="1" fill="none" fill-rule="evenodd">
        <g id="Contact-us" transform="translate(-538.000000, -533.000000)">
            <g id="Phone-icon" transform="translate(541.000000, 536.000000)">
                <circle id="Oval" stroke="#FFFFFF" stroke-width="6" cx="49.5" cy="49.5" r="49.5"></circle>
                <g id="Group-4" transform="translate(49.500000, 50.500000) rotate(-105.000000) translate(-49.500000, -50.500000) translate(26.000000, 20.000000)">
                    <mask id="mask-2" fill="white">
                        <use xlink:href="#path-1"></use>
                    </mask>
                    <g id="Clip-2"></g>
                    <path d="M10.5589257,6.26557333 C3.50397615,10.757086 4.00924277,24.416232 11.8155181,37.7024699 C19.6236718,50.9905538 31.4044608,58.2567248 38.8895444,54.4925676 L41.1097123,51.9283625 L35.0089465,44.4960443 C34.9657453,44.4665071 34.7196861,44.3538962 34.5994739,44.3372815 L32.5859207,44.3778952 C26.6617165,47.3076242 21.2052127,44.3483579 15.9290271,35.3671787 C10.6509631,26.3804612 10.7749319,20.2588598 16.3197165,16.686695 L17.3978691,14.9255347 C17.4110173,14.8775366 17.433557,14.6153932 17.4091389,14.5027823 L13.934257,5.65636692 L10.5589257,6.26557333 Z M34.6332836,60.9999997 C25.3112084,61.0018457 14.4770899,53.3110764 6.93565688,40.4715899 C-2.74893307,23.9879415 -2.23615319,7.12215445 8.12838664,1.23685137 L8.5491291,0.996860965 L13.6562664,0.075667038 C15.8538945,-0.328624485 18.1172635,0.923017765 18.9193039,2.97401266 L22.6872029,12.5717827 C23.3126817,14.172334 23.1229719,16.3137868 22.2288941,17.7795744 L20.4200772,20.7314563 L19.7889635,21.0895958 C18.3933758,21.8815642 15.4838665,23.5319597 20.8088883,32.5980586 C26.1301535,41.6567733 29.0452977,40.0174542 30.4465204,39.2236398 L31.0738775,38.8673464 L34.5731775,38.8008875 C36.2993486,38.8027336 38.2978753,39.688852 39.3891761,41.0143374 L45.9651554,49.0207865 C47.372013,50.7302565 47.34196,53.279693 45.8900228,54.9522415 L42.5278398,58.8363939 L42.1070973,59.0763843 C39.8117969,60.3778707 37.2835855,60.9999997 34.6332836,60.9999997 L34.6332836,60.9999997 Z" id="Fill-1" fill="#FFFFFF" mask="url(#mask-2)"></path>
                </g>
            </g>
        </g>
    </g>
</svg>