<?xml version="1.0" encoding="UTF-8"?>
<svg width="22px" height="21px" viewBox="0 0 22 21" version="1.1" xmlns="http://www.w3.org/2000/svg" xmlns:xlink="http://www.w3.org/1999/xlink">
    <!-- Generator: sketchtool 53.2 (72643) - https://sketchapp.com -->
    <title>434E7E43-1FDF-48DB-B488-5ADC773A91AA</title>
    <desc>Created with sketchtool.</desc>
    <g id="Page-1" stroke="none" stroke-width="1" fill="none" fill-rule="evenodd">
        <g id="Homepage" transform="translate(-1271.000000, -2237.000000)" fill="#007AFF">
            <path d="M1287.57043,2243.50087 C1285.06964,2243.50087 1283.94874,2244.8729 1283.31909,2245.84024 L1283.31909,2245.88564 L1283.28845,2245.88564 C1283.3013,2245.87182 1283.31118,2245.85603 1283.31909,2245.84024 L1283.31909,2243.83351 L1278.60318,2243.83351 C1278.66447,2245.16113 1278.60318,2258 1278.60318,2258 L1283.31909,2258 L1283.31909,2250.0886 C1283.31909,2249.66219 1283.34874,2249.24465 1283.47428,2248.93965 C1283.81628,2248.09669 1284.59321,2247.21523 1285.89302,2247.21523 C1287.60107,2247.21523 1288.28508,2248.51718 1288.28508,2250.42026 L1288.28508,2258 L1293,2258 L1293,2249.87836 C1293.00099,2245.52338 1290.67318,2243.50087 1287.57043,2243.50087 L1287.57043,2243.50087 Z M1271.27677,2257.99901 L1275.99366,2257.99901 L1275.99366,2243.83154 L1271.27677,2243.83154 L1271.27677,2257.99901 Z M1276.30503,2239.44992 C1276.30503,2240.80813 1275.28099,2241.89687 1273.6362,2241.89687 L1273.60655,2241.89687 C1272.02305,2241.89786 1271,2240.80715 1271,2239.44992 C1271,2238.05913 1272.05468,2237 1273.66783,2237 C1275.28099,2236.99901 1276.27439,2238.05913 1276.30503,2239.44992 L1276.30503,2239.44992 Z" id="Linkedin-icon"></path>
        </g>
    </g>
</svg>