<?xml version="1.0" encoding="UTF-8"?>
<svg width="99px" height="99px" viewBox="0 0 99 99" version="1.1" xmlns="http://www.w3.org/2000/svg" xmlns:xlink="http://www.w3.org/1999/xlink">
    <!-- Generator: sketchtool 53.2 (72643) - https://sketchapp.com -->
    <title>5A5BD003-61E2-4202-B5BC-A2725C7361A8</title>
    <desc>Created with sketchtool.</desc>
    <defs>
        <polygon id="path-1" points="0 3.05825243e-05 31 3.05825243e-05 31 42 0 42"></polygon>
    </defs>
    <g id="Page-1" stroke="none" stroke-width="1" fill="none" fill-rule="evenodd">
        <g id="Why-Freshgrass?" transform="translate(-955.000000, -453.000000)">
            <g id="Motivators-icon_WEB" transform="translate(955.000000, 453.000000)">
                <g id="Group-4">
                    <circle id="Oval" fill="#77BF44" cx="49.5" cy="49.5" r="49.5"></circle>
                    <circle id="Oval" stroke="#FFFFFF" stroke-width="5" cx="49.5" cy="49.5" r="39.5"></circle>
                </g>
                <g id="Group-18" transform="translate(24.000000, 21.000000)">
                    <g id="Group-3" transform="translate(11.000000, 10.000000)">
                        <mask id="mask-2" fill="white">
                            <use xlink:href="#path-1"></use>
                        </mask>
                        <g id="Clip-2"></g>
                        <path d="M28,27.5526422 C28,29.7817005 26.7851,31.7857733 24.8292,32.7828655 C24.321,33.0417976 24,33.571283 24,34.150516 L24,38.9417782 L7,38.9417782 L7,34.150516 C7,33.571283 6.679,33.0417976 6.1708,32.7828655 C4.2149,31.7858752 3,29.7819044 3,27.5526422 L3,18.0865354 C3.4695,18.2562684 3.9741,18.3495451 4.5,18.3495451 C5.4057,18.3495451 6.2491,18.0743024 6.9558,17.6031277 C7.7802,18.6768801 9.0619,19.3689626 10.5,19.3689626 C11.6517,19.3689626 12.7032,18.9251083 13.5,18.1971422 C14.2968,18.9250063 15.3483,19.3689626 16.5,19.3689626 L18.6901,19.3689626 C17.5748,20.8467102 17,22.7305937 17,24.9757587 C17,25.8202442 17.6716,26.504885 18.5,26.504885 C19.3284,26.504885 20,25.8202442 20,24.9757587 C20,22.0183267 21.2629,20.211817 23.9743,19.2903655 C24.7602,19.0233801 25.1849,18.1574869 24.923,17.3562248 C24.7135,16.715317 24.128,16.3113218 23.5,16.3113218 L23.5,16.3107102 L23.476,16.3107102 C23.4732,16.3107102 23.4705,16.3106083 23.4677,16.3107102 L16.5,16.3107102 C15.6729,16.3107102 15,15.6247442 15,14.781584 C15,13.9384238 15.6729,13.2524578 16.5,13.2524578 L25.5,13.2524578 C26.8785,13.2524578 28,14.3957345 28,15.8010015 L28,27.5526422 Z M3,8.66507913 C3,7.82191893 3.6729,7.13595291 4.5,7.13595291 C5.3271,7.13595291 6,7.82191893 6,8.66507913 L6,13.7621665 C6,14.6053267 5.3271,15.2912927 4.5,15.2912927 C3.6729,15.2912927 3,14.6053267 3,13.7621665 L3,8.66507913 Z M9,6.62624417 C9,5.78308398 9.6729,5.09711796 10.5,5.09711796 C11.3271,5.09711796 12,5.78308398 12,6.62624417 L12,14.781584 C12,15.6247442 11.3271,16.3107102 10.5,16.3107102 C9.6729,16.3107102 9,15.6247442 9,14.781584 L9,6.62624417 Z M15,4.58740922 C15,3.74424903 15.6729,3.05828301 16.5,3.05828301 C17.3271,3.05828301 18,3.74424903 18,4.58740922 L18,10.1942053 L16.5,10.1942053 C15.9741,10.1942053 15.4695,10.287482 15,10.457215 L15,4.58740922 Z M22.5,5.09711796 C23.3271,5.09711796 24,5.78308398 24,6.62624417 L24,10.1942053 L21,10.1942053 L21,6.62624417 C21,5.78308398 21.6729,5.09711796 22.5,5.09711796 L22.5,5.09711796 Z M27,10.4078752 L27,6.62624417 C27,4.09676359 24.9813,2.03886553 22.5,2.03886553 C21.7864,2.03886553 21.1115,2.2097199 20.5114,2.51248689 C19.767,1.02311796 18.249,3.05825243e-05 16.5,3.05825243e-05 C14.751,3.05825243e-05 13.233,1.02311796 12.4886,2.51248689 C11.8885,2.2097199 11.2136,2.03886553 10.5,2.03886553 C8.751,2.03886553 7.233,3.06195291 6.4886,4.55132184 C5.8885,4.24855485 5.2136,4.07770049 4.5,4.07770049 C2.0187,4.07770049 0,6.13559854 0,8.66507913 L0,27.5526422 C0,30.6205791 1.5109,33.4082782 4,35.0375112 L4,40.4709044 C4,41.3153898 4.6716,42.0000306 5.5,42.0000306 L25.5,42.0000306 C26.3284,42.0000306 27,41.3153898 27,40.4709044 L27,35.0375112 C29.4891,33.4083801 31,30.6205791 31,27.5526422 L31,15.8010015 C31,13.2395112 29.3057,11.0753898 27,10.4078752 L27,10.4078752 Z" id="Fill-1" fill="#FFFFFF" mask="url(#mask-2)"></path>
                    </g>
                    <path d="M50.5,25 L46.5,25 C45.6716,25 45,25.6716 45,26.5 C45,27.3284 45.6716,28 46.5,28 L50.5,28 C51.3284,28 52,27.3284 52,26.5 C52,25.6716 51.3284,25 50.5,25" id="Fill-4" fill="#FFFFFF"></path>
                    <path d="M5.5,25 L1.5,25 C0.6716,25 0,25.6716 0,26.5 C0,27.3284 0.6716,28 1.5,28 L5.5,28 C6.3284,28 7,27.3284 7,26.5 C7,25.6716 6.3284,25 5.5,25" id="Fill-6" fill="#FFFFFF"></path>
                    <path d="M48.7820354,12.7502254 C48.3334278,12.0328141 47.3401674,11.7869445 46.5633604,12.2012933 L42.8124029,14.2010461 C42.0354877,14.6151949 41.7693333,15.5324814 42.217941,16.2497928 C42.5187452,16.7310333 43.0646974,17 43.6260254,17 C43.9016002,17 44.1808565,16.935208 44.4366159,16.7987249 L48.1875734,14.7989721 C48.9645969,14.3849233 49.230643,13.4675368 48.7820354,12.7502254" id="Fill-8" fill="#FFFFFF"></path>
                    <path d="M35.7501916,9.782033 C35.9863658,9.92972649 36.2442375,10 36.4987096,10 C37.0170529,10 37.5211977,9.70872765 37.7989673,9.18757754 L39.7987483,5.43666104 C40.2130029,4.6598626 39.9672298,3.66639651 39.2498084,3.21801034 C38.5323869,2.76929933 37.6150874,3.03545079 37.2010327,3.8124658 L35.2012517,7.5633823 C34.7869971,8.34018074 35.0327702,9.33364683 35.7501916,9.782033" id="Fill-10" fill="#FFFFFF"></path>
                    <path d="M26.5,7 C27.3284,7 28,6.3284 28,5.5 L28,1.5 C28,0.6716 27.3284,0 26.5,0 C25.6716,0 25,0.6716 25,1.5 L25,5.5 C25,6.3284 25.6716,7 26.5,7" id="Fill-12" fill="#FFFFFF"></path>
                    <path d="M14.2010327,9.18756921 C14.4788023,9.70872467 14.9829471,10 15.5012904,10 C15.7557625,10 16.0136342,9.92983405 16.2498084,9.78203076 C16.9672298,9.33353172 17.2130029,8.34016373 16.7987483,7.56335732 L14.7989673,3.81240238 C14.3847126,3.03548769 13.4676131,2.7693335 12.7501916,3.21794083 C12.0327702,3.66643987 11.7869971,4.65980786 12.2012517,5.43661427 L14.2010327,9.18756921 Z" id="Fill-14" fill="#FFFFFF"></path>
                    <path d="M9.18759432,14.2010832 L5.43662416,12.2013569 C4.6598146,11.7869136 3.6663343,12.03278 3.21794171,12.7502818 C2.76933257,13.4675836 3.03548784,14.384958 3.81240568,14.7990013 L7.56337584,16.7987276 C7.81913611,16.9351089 8.09839341,17 8.37396914,17 C8.93529905,17 9.48125302,16.7310368 9.78205829,16.2498027 C10.2306674,15.5325009 9.96451216,14.6151265 9.18759432,14.2010832" id="Fill-16" fill="#FFFFFF"></path>
                </g>
            </g>
        </g>
    </g>
</svg>