<?xml version="1.0" encoding="UTF-8"?>
<svg width="105px" height="105px" viewBox="0 0 105 105" version="1.1" xmlns="http://www.w3.org/2000/svg" xmlns:xlink="http://www.w3.org/1999/xlink">
    <!-- Generator: sketchtool 53.2 (72643) - https://sketchapp.com -->
    <title>5C09AC4C-75A3-4EE1-A6D7-23B60B1FA2DF</title>
    <desc>Created with sketchtool.</desc>
    <defs>
        <polygon id="path-1" points="0 0 64 0 64 64 0 64"></polygon>
    </defs>
    <g id="Page-1" stroke="none" stroke-width="1" fill="none" fill-rule="evenodd">
        <g id="Contact-us" transform="translate(-115.000000, -533.000000)">
            <g id="Email-icon" transform="translate(118.000000, 536.000000)">
                <circle id="Oval" stroke="#FFFFFF" stroke-width="6" cx="49.5" cy="49.5" r="49.5"></circle>
                <g id="Group" transform="translate(18.000000, 18.000000)">
                    <mask id="mask-2" fill="white">
                        <use xlink:href="#path-1"></use>
                    </mask>
                    <g id="Clip-2"></g>
                    <path d="M32.0000097,41.3333295 C26.8541362,41.3333295 22.6666375,37.1458303 22.6666375,31.9999564 C22.6666375,26.8540825 26.8541362,22.6665834 32.0000097,22.6665834 C37.1458831,22.6665834 41.3333818,26.8540825 41.3333818,31.9999564 C41.3333818,37.1458303 37.1458831,41.3333295 32.0000097,41.3333295 M28.3418858,0.204463198 C13.9073901,1.81471286 2.18401867,13.2752104 0.285644243,27.6744574 C-2.40410495,48.079453 14.27789,65.4389493 34.4842589,63.9055747 C41.9172567,63.3414498 48.8747546,60.0198255 54.3262529,54.9357016 L54.7945028,54.4992017 C55.3331276,53.9969518 55.3625026,53.1532019 54.8602528,52.6147021 L53.0408783,50.6638275 C52.5386285,50.1252026 51.6950037,50.0958276 51.1563789,50.5980775 L50.1810042,51.5078273 C44.117256,57.1617011 35.7930085,59.7054505 27.3955111,58.2753258 C15.4936396,56.2483263 6.34414241,46.1438284 5.41476769,34.106331 C4.18589306,18.1884594 17.0258892,4.8865872 32.7905094,5.34471211 C47.326505,5.76733702 58.6666266,18.1717094 58.6666266,32.7138313 L58.6666266,34.6665809 C58.6666266,37.7833302 55.9808774,40.2830797 52.8015034,39.9740797 C50.0307542,39.7045798 48.0000048,37.2142053 48.0000048,34.4302059 L48.0000048,22.6667084 C48.0000048,21.9302086 47.403005,21.3333337 46.6666302,21.3333337 L44.000006,21.3333337 C43.4646312,21.3333337 43.0098813,21.6533336 42.7977564,22.1087085 C40.1146322,19.1820842 36.2740084,17.3333346 32.0000097,17.3333346 C23.9127621,17.3333346 17.3333891,23.9127082 17.3333891,31.9999564 C17.3333891,40.0872047 23.9127621,46.6667033 32.0000097,46.6667033 C37.0943831,46.6667033 41.5863818,44.0530789 44.216506,40.0992047 C46.1967554,43.408579 49.8760043,45.5894535 54.064003,45.3088286 C59.7268763,44.9294537 64,39.9655797 64,34.290081 L64,31.9999564 C64,13.1502104 47.6163799,-1.94578634 28.3418858,0.204463198" id="Fill-1" fill="#FFFFFF" mask="url(#mask-2)"></path>
                </g>
            </g>
        </g>
    </g>
</svg>