<?xml version="1.0" encoding="UTF-8"?>
<svg width="124px" height="43px" viewBox="0 0 124 43" version="1.1" xmlns="http://www.w3.org/2000/svg" xmlns:xlink="http://www.w3.org/1999/xlink">
    <!-- Generator: Sketch 53.2 (72643) - https://sketchapp.com -->
    <title>Group 2</title>
    <desc>Created with Sketch.</desc>
    <defs>
        <polygon id="path-1" points="0 0 123.999946 0 123.999946 43 0 43"></polygon>
    </defs>
    <g id="Page-1" stroke="none" stroke-width="1" fill="none" fill-rule="evenodd">
        <g id="Menu" transform="translate(-20.000000, -21.000000)">
            <g id="Group-2" transform="translate(20.000000, 21.000000)">
                <g id="Group-3">
                    <mask id="mask-2" fill="white">
                        <use xlink:href="#path-1"></use>
                    </mask>
                    <g id="Clip-2"></g>
                    <path d="M107.77212,43 L-5.39130435e-05,43 L-5.39130435e-05,16.17875 C-5.39130435e-05,7.25625 7.27820696,0 16.2277722,0 L123.999946,0 L123.999946,26.82125 C123.999946,35.74375 116.721685,43 107.77212,43" id="Fill-1" fill="#FFFFFF" mask="url(#mask-2)"></path>
                </g>
                <path d="M20,17.4280443 L20,18.8118081 L16.5,18.8118081 L16.5291667,27.9723247 L14.7791667,28 L14.75,18.8118081 L13,18.8118081 L13,17.4280443 L14.75,17.4280443 L14.75,16.5147601 C14.75,15.3523985 15.0125,14.4944649 15.5958333,13.8856089 C16.1791667,13.2767528 16.9958333,13 18.075,13 C18.4541667,13 18.8041667,13.0276753 19.0666667,13.0553506 C19.3583333,13.0830258 19.6208333,13.1660517 20,13.2490775 L20,14.6051661 C19.5916667,14.5221402 19.3291667,14.4667897 19.0958333,14.4114391 C18.8625,14.3560886 18.6,14.3284133 18.3083333,14.3284133 C17.025,14.3284133 16.5291667,15.0756458 16.5291667,16.5701107 L16.5291667,17.400369 L20,17.400369 L20,17.4280443 Z" id="Fill-4" fill="#77BF44"></path>
                <path d="M22.722488,28 L21,28 L21,18.2813299 L22.722488,18.2813299 L22.722488,20.8132992 C22.8660287,20.4040921 23.1244019,20.0460358 23.4114833,19.6879795 C23.6985646,19.3554987 24.0430622,19.0485934 24.4162679,18.8184143 C24.7894737,18.5626598 25.2200957,18.3836317 25.6507177,18.2557545 C26.1100478,18.1278772 26.5980861,18 27,18 L27,19.5345269 C26.3971292,19.5345269 25.5645933,19.7902813 25.3062201,19.943734 C24.8181818,20.1994885 24.3014354,20.4040921 23.9282297,20.7877238 C23.5263158,21.1713555 23.2105263,21.6317136 23.0095694,22.1943734 C22.7799043,22.7570332 22.6650718,23.3964194 22.722488,24.1381074 L22.722488,28 Z" id="Fill-6" fill="#77BF44"></path>
                <path d="M36.3379501,22.4584383 C36.3102493,22.0302267 36.2271468,21.6020151 36.0609418,21.1989924 C35.8947368,20.7959698 35.8393352,20.4685139 35.5623269,20.1662469 C35.2853186,19.8639798 34.9529086,19.6372796 34.5373961,19.4609572 C34.1495845,19.2846348 33.6786704,19.1838791 33.1523546,19.1838791 C32.6814404,19.1838791 32.265928,19.2594458 31.8781163,19.4357683 C31.4903047,19.6120907 31.1301939,19.8387909 30.8531856,20.115869 C30.5484765,20.418136 30.299169,20.7455919 30.132964,21.1486146 C29.9390582,21.5516373 29.7728532,21.9798489 29.7174515,22.4584383 L36.3379501,22.4584383 Z M30.1606648,24.8765743 C30.3822715,25.279597 30.6592798,25.6070529 30.9916898,25.9093199 C31.3240997,26.186398 31.7119114,26.3879093 32.1274238,26.5390428 C32.5429363,26.6901763 32.9861496,26.7405542 33.4570637,26.7405542 C34.2049861,26.7405542 34.8144044,26.6146096 35.3407202,26.3627204 C35.867036,26.1108312 36.3379501,25.7833753 36.7811634,25.3803526 L37.7506925,26.186398 C37.2243767,26.7405542 36.6149584,27.1687657 35.9224377,27.4962217 C35.2299169,27.8236776 34.398892,28 33.401662,28 C32.6814404,28 31.9889197,27.8740554 31.3518006,27.6473552 C30.7146814,27.395466 30.1606648,27.0680101 29.6620499,26.6146096 C29.1911357,26.186398 28.8033241,25.6070529 28.5540166,24.97733 C28.2493075,24.2216625 28,23.6926952 28,22.9622166 C28,22.256927 28.3047091,21.2997481 28.5540166,20.6952141 C28.8033241,20.0906801 29.0803324,19.8891688 29.5235457,19.4357683 C29.966759,18.9823678 30.5207756,18.6297229 31.1301939,18.3778338 C31.7396122,18.1259446 32.432133,18 33.1523546,18 C33.9279778,18 34.6204986,18.1259446 35.2299169,18.4030227 C35.8393352,18.6801008 36.365651,19.0327456 36.7811634,19.4861461 C37.1966759,19.9395466 37.5290859,20.4937028 37.7506925,21.0982368 C38,21.7027708 38,22.256927 38,22.9622166 L38,23.2141058 L38,23.7178841 L29.6897507,23.7178841 C29.7451524,24.2468514 29.9390582,24.4987406 30.1606648,24.8765743 L30.1606648,24.8765743 Z" id="Fill-8" fill="#77BF44"></path>
                <path d="M47.6996587,26.3289031 C47.5085324,26.6833245 47.2354949,26.9873674 46.9078498,27.2405256 C46.5802048,27.4936837 46.1979522,27.6706412 45.7337884,27.7972203 C45.2969283,27.9237994 44.8054608,28 44.2866894,28 C43.5221843,28 42.7849829,27.8734209 42.0204778,27.6202628 C41.2559727,27.3671046 40.5733788,27.0124301 40,26.5820612 L40.7918089,25.5441128 C41.3651877,25.9491658 41.9385666,26.2529556 42.5665529,26.4554821 C43.1672355,26.6580087 43.7952218,26.7845877 44.3959044,26.7845877 C45.0238908,26.7845877 45.5426621,26.6580087 45.9522184,26.3795347 C46.3617747,26.1013139 46.552901,25.7215767 46.552901,25.2656388 L46.552901,25.240323 C46.552901,25.0124807 46.4709898,24.8099542 46.334471,24.6327435 C46.1979522,24.4557859 46.0068259,24.3036379 45.7610922,24.1770588 C45.5153584,24.0504797 45.2423208,23.9239007 44.9146758,23.8228906 C44.5870307,23.7213741 44.2866894,23.6201109 43.9317406,23.5441634 C43.5221843,23.4431533 43.112628,23.3165743 42.7030717,23.1899952 C42.2935154,23.0634161 41.9112628,22.8859523 41.5836177,22.6836789 C41.2559727,22.4808992 40.9829352,22.2277411 40.7918089,21.9239513 C40.5733788,21.6201615 40.3549488,21.3163717 40.3549488,20.8860029 L40.3822526,20.7847396 C40.3822526,20.3796866 40.5733788,19.9999494 40.7645051,19.645528 C40.9283276,19.2911066 41.1740614,19.0126326 41.5017065,18.7594744 C41.8293515,18.5063163 42.1843003,18.3291056 42.6211604,18.2025265 C43.0580205,18.0759474 43.5221843,18 44.0409556,18 C44.6962457,18 45.3242321,18.1012633 46.0068259,18.278474 C46.662116,18.4810005 47.2627986,18.7341586 47.8088737,19.0632642 L47.0989761,20.1518443 C46.6075085,19.8733703 46.116041,19.645528 45.5699659,19.4683173 C45.0511945,19.2911066 44.5324232,19.2151591 44.0136519,19.2151591 C43.3856655,19.2151591 42.894198,19.3417382 42.5392491,19.6202121 C42.1843003,19.8986861 41.9931741,20.2277917 41.9931741,20.6075289 L41.9931741,20.6328447 C41.9931741,20.8606871 42.0750853,21.0632136 42.2116041,21.2151085 C42.3481229,21.3923192 42.5665529,21.5188983 42.8122867,21.6454773 C43.0580205,21.7720564 43.3583618,21.8733197 43.6587031,21.9745829 C43.9863481,22.0758462 44.3139932,22.1773626 44.668942,22.2783727 C45.0784983,22.379636 45.4607509,22.506215 45.8703072,22.6581099 C46.2525597,22.784689 46.6348123,22.9618997 46.9351536,23.1899952 C47.2627986,23.3922686 47.5085324,23.6454267 47.6996587,23.9494696 C47.890785,24.2530063 48,24.6074277 48,25.0631123 L48,25.0886813 C48,25.5441128 47.890785,25.9747348 47.6996587,26.3289031" id="Fill-10" fill="#77BF44"></path>
                <path d="M51.6314199,28 L50,28 L50,14.6666667 C50,13.8055556 50.7613293,13 51.6042296,13 L51.6314199,19.0555556 C51.9848943,18.4722222 52.2839879,18.2222222 52.8549849,17.8055556 C53.4259819,17.4166667 54.2688822,17.1388889 55.1661631,17.1388889 C55.7915408,17.1388889 56.2265861,17.2777778 56.7160121,17.5 C57.2054381,17.6944444 57.6132931,18 57.9667674,18.3611111 C58.3202417,18.75 58.5649547,19.1944444 58.755287,19.6944444 C58.9456193,20.2222222 59,20.6666667 59,21.3055556 L59,27.9722222 L57.3685801,27.9722222 L57.3685801,21.8888889 C57.3685801,20.9166667 57.2326284,20.0833333 56.7432024,19.5 C56.2537764,18.9166667 55.5740181,18.5555556 54.6495468,18.5555556 C54.2145015,18.5555556 53.7794562,18.7222222 53.3987915,18.8888889 C53.0181269,19.0555556 52.6918429,19.2777778 52.4199396,19.5555556 C52.1480363,19.8611111 52.1208459,20 51.9577039,20.4166667 C51.7945619,20.8333333 51.6858006,21.4166667 51.6858006,21.9166667 L51.6858006,28 L51.6314199,28 Z" id="Fill-12" fill="#77BF44"></path>
                <path d="M69.2051282,21.2436149 C69,20.8349705 68.7435897,20.4774067 68.41,20.1964637 C68.0769231,19.9155206 67.6923077,19.6856582 67.2561538,19.5324165 C66.8205128,19.3791749 66.2820513,19.2514735 65.8205128,19.2514735 C65.3589744,19.2514735 65,19.3791749 64.5897436,19.5324165 C64.1792308,19.6856582 63.8205128,19.9155206 63.5128205,20.1964637 C63.2051282,20.4774067 62.9487179,20.8349705 62.7948718,21.2436149 C62.6153846,21.6522593 62.4871795,22.086444 62.4871795,22.5717092 C62.4871795,23.0825147 62.6153846,23.5422397 62.7948718,23.9511395 C62.974359,24.3595285 63.2307692,24.7173477 63.5382051,24.9980354 C63.8461538,25.3045187 64.2051282,25.5088409 64.6153846,25.6876228 C65.025641,25.8408644 65.3589744,25.891945 65.8205128,25.891945 C66.2820513,25.891945 66.8205128,25.8408644 67.2561538,25.6876228 C67.6923077,25.5343811 68.0769231,25.3045187 68.41,25.0235756 C68.7435897,24.7426326 69,24.3850688 69.2051282,23.9764244 C69.4102564,23.5680354 69.5128205,23.108055 69.5128205,22.6227898 C69.5128205,22.1119843 69.4102564,21.6522593 69.2051282,21.2436149 M70.5641026,28.3438114 C70.3330769,28.9314931 70,29.4165029 69.5638462,29.8254028 C69.1282051,30.2085069 68.6153846,30.5147348 68,30.7193124 C67.384359,30.9233792 66.5897436,31 65.8458974,31 C65.025641,31 64.3589744,30.8978389 63.6153846,30.6679764 C62.8717949,30.4381139 62.1794872,30.1060904 61.5128205,29.6463654 L62.1794872,28.5225933 C62.7435897,28.9314931 63.3333333,29.237721 63.9487179,29.4422986 C64.5638462,29.6463654 65.1282051,29.7229862 65.8458974,29.7229862 C66.9230769,29.7229862 67.8717949,29.4675835 68.5382051,28.9056974 C69.1792308,28.3182711 69.5128205,27.4499018 69.435641,26.3261297 L69.435641,25.1768173 C69.0510256,25.7389587 68.5382051,26.2239686 67.9230769,26.6328684 C67.3076923,27.0412574 66.7433333,27.194499 65.8458974,27.194499 C65.2564103,27.194499 64.4871795,27.1436739 63.9487179,26.913556 C63.41,26.6836935 62.9230769,26.4027505 62.4871795,26.0196464 C62.0512821,25.6365422 61.7179487,25.151277 61.4615385,24.5896464 C61.2051282,24.0275049 61,23.3126326 61,22.5972495 C61,21.8821218 61.2051282,21.2946955 61.4615385,20.7328094 C61.7179487,20.1709234 62.0512821,19.6856582 62.4871795,19.2770138 C62.9230769,18.8939096 63.41,18.5874263 63.974359,18.3575639 C64.5384615,18.1532417 65.025641,18 65.6153846,18 C66.0769231,18 66.5384615,18.1021611 66.9230769,18.2043222 C67.3076923,18.3064833 67.6407692,18.459725 67.974359,18.6385069 C68.2817949,18.8172888 68.5641026,19.021611 68.8205128,19.2514735 C69.0769231,19.481336 69.3074359,19.7367387 69.4615385,19.9921415 L69.4615385,18.2298625 L71,18.2298625 L71,26.2750491 C70.8974359,27.0667976 70.7948718,27.7563851 70.5641026,28.3438114" id="Fill-14" fill="#77BF44"></path>
                <path d="M76.722488,28 L75,28 L75,17.3017456 L76.722488,17.3017456 L76.722488,20.0174564 C76.7799043,19.5785536 77.0382775,19.1945137 77.3253589,18.8104738 C77.6124402,18.4538653 77.9569378,18.1246883 78.3301435,17.8778055 C78.7033493,17.6034913 79.1339713,17.4114713 79.5645933,17.2743142 C80.0239234,17.1371571 80.4832536,17 81,17 L81,18.6458853 C80.4258373,18.6458853 79.7368421,18.8653367 79.2200957,19.084788 C78.7033493,19.276808 78.215311,19.5785536 77.8421053,19.9900249 C77.4401914,20.4014963 77.2392344,20.5112219 77.0095694,21.1147132 C76.7799043,21.7182045 76.722488,22.7605985 76.722488,23.5561097 L76.722488,28 Z" id="Fill-16" fill="#77BF44"></path>
                <path d="M83.3628319,23.4887218 C82.8584071,23.8393484 82.5663717,24.3909774 82.5663717,25.0175439 C82.5663717,25.3182957 82.6725664,25.543609 82.8053097,25.7694236 C82.9380531,25.9949875 83.1238938,26.1954887 83.3628319,26.3709273 C83.6017699,26.5461153 83.8672566,26.6714286 84.159292,26.7468672 C84.4778761,26.8220551 84.7964602,26.8721805 85.1150442,26.8721805 C85.5929204,26.8721805 86.0176991,26.7967419 86.4424779,26.6714286 C86.8672566,26.5461153 87.2123894,26.3709273 87.5044248,26.1453634 C87.8230088,25.9195489 88.0619469,25.6441103 88.2212389,25.3431078 C88.4070796,25.0175439 88.380531,24.666416 88.380531,24.2656642 L88.380531,23.2631579 C88.0088496,23.1626566 87.6902655,23.1879699 87.1858407,23.0874687 C86.7079646,23.0125313 86.1504425,22.9621554 85.5132743,22.9621554 C84.6106195,22.9621554 83.8672566,23.1378446 83.3628319,23.4887218 M83.840708,19.5786967 C83.3628319,19.70401 82.5663717,20.0050125 82.300885,20.2556391 L82.0353982,19.0025063 C82.5929204,18.7518797 83.0973451,18.4761905 83.6548673,18.3255639 C84.2389381,18.1754386 85.0088496,18 85.7522124,18 C87.1327434,18 88.0884956,18.4508772 88.8318584,19.0774436 C89.5752212,19.7293233 89.9469027,20.6817043 90,21.9596491 L90,27.7744361 L88.4070796,27.7744361 L88.4070796,26.5213033 C88.0619469,26.9473684 87.6637168,27.1726817 87.079646,27.4987469 C86.4955752,27.8245614 85.7256637,28 84.8495575,28 C84.3716814,28 83.920354,27.9498747 83.4690265,27.8245614 C83.0176991,27.6992481 82.619469,27.5238095 82.2477876,27.273183 C81.8761062,27.0225564 81.6106195,26.7215539 81.3982301,26.345614 C81.1858407,25.9696742 81,25.543609 81,25.0423559 C81,24.5411028 81.1858407,24.0899749 81.3982301,23.6892231 C81.6106195,23.3132832 81.9026549,22.9874687 82.300885,22.7115288 C82.699115,22.4360902 83.1504425,22.2606516 83.6814159,22.1102757 C84.2123894,21.9849624 84.7964602,21.9097744 85.4336283,21.9097744 C86.0973451,21.9097744 86.6548673,21.9348371 87.1327434,22.0100251 C87.6106195,22.0849624 88.0088496,22.1353383 88.460177,22.2606516 L88.460177,21.7593985 C88.460177,20.9072682 88.2743363,20.481203 87.7433628,20.0300752 C87.2123894,19.60401 86.4690265,19.2531328 85.539823,19.2531328 C84.8761062,19.2531328 84.3451327,19.4285714 83.840708,19.5786967" id="Fill-18" fill="#77BF44"></path>
                <path d="M100.569926,26.3165829 C100.382684,26.6683417 100.115195,26.9701005 99.7944767,27.2213568 C99.4732229,27.4726131 99.0987389,27.6482412 98.6440084,27.7738693 C98.2160267,27.8994975 97.7612962,28 97.2533354,28 C96.5041,28 95.7283832,27.8241206 94.9796828,27.5728643 C94.2304473,27.321608 93.561726,26.9701005 93,26.5427136 L93.7759843,25.5125628 C94.3374427,25.9145729 94.8991687,26.2163317 95.5146599,26.4170854 C96.1028672,26.6180905 96.7183583,26.7437186 97.3065657,26.7437186 C97.9220568,26.7437186 98.4300176,26.6180905 98.8312504,26.3419598 C99.2324832,26.0653266 99.4197252,25.6884422 99.4197252,25.2361809 L99.4197252,25.2113065 C99.4197252,24.9849246 99.3394786,24.7839196 99.2057344,24.6080402 C99.0719901,24.4321608 98.8847481,24.281407 98.6440084,24.1557789 C98.4032687,24.0301508 98.1357802,23.9045226 97.8147939,23.8040201 C97.4938076,23.7037688 97.1995702,23.6030151 96.8521026,23.5276382 C96.4508698,23.4271357 96.049637,23.3015075 95.6484041,23.1758794 C95.2471713,23.0502513 94.8724198,22.8743719 94.5514336,22.6733668 C94.2304473,22.4723618 93.9629588,22.2211055 93.7759843,21.919598 C93.561726,21.6180905 93.5084957,21.1658291 93.5084957,20.7135678 L93.4814794,20.7638191 C93.4814794,20.361809 93.561726,19.9849246 93.7489679,19.6331658 C93.9097286,19.281407 94.1502008,19.0050251 94.471187,18.7537688 C94.7921733,18.5025126 95.1399084,18.3266332 95.5678901,18.201005 C95.9958718,18.0753769 96.4508698,18 96.9588305,18 C97.6008031,18 98.2160267,18.1005025 98.8847481,18.2763819 C99.5269881,18.4773869 100.115195,18.7286432 100.650173,19.0552764 L99.9547023,20.1356784 C99.4732229,19.8592965 98.992011,19.6331658 98.4570339,19.4572864 C97.9485382,19.281407 97.4403099,19.2060302 96.9320817,19.2060302 C96.3171255,19.2060302 95.8353786,19.3316583 95.4876435,19.6080402 C95.1399084,19.8844221 95.1399084,20.2864322 95.1399084,20.6884422 C95.1399084,21.1909548 95.5146599,21.5427136 95.7551321,21.6683417 C95.9958718,21.7939698 96.2901092,21.8944724 96.5846141,21.9949749 C96.9053328,22.0954774 97.2263191,22.1962312 97.5740542,22.2964824 C97.975287,22.3969849 98.349771,22.5226131 98.7510038,22.6733668 C99.1257553,22.798995 99.4999718,22.9748744 99.7944767,23.2012563 C100.115195,23.4020101 100.355935,23.6532663 100.543177,23.9550251 C100.730687,24.2562814 100.998175,24.5577889 100.998175,24.9849246 L100.998175,25.2361809 C101.024656,25.6884422 100.757168,25.9650754 100.569926,26.3165829" id="Fill-20" fill="#77BF44"></path>
                <path d="M109.664493,26.1666667 C109.475183,26.5497512 109.204353,26.8783831 108.879357,27.1520149 C108.55409,27.4256468 108.174928,27.6169154 107.714787,27.7537313 C107.281188,27.8905473 106.739528,28 106.225221,28 C105.466626,28 104.762468,27.8084577 104.004414,27.5348259 C103.24609,27.261194 102.569014,26.8783831 102,26.4129353 L102.785678,25.2910448 C103.354151,25.7288557 103.923165,26.0574876 104.546074,26.2761194 C105.141901,26.4950249 105.629395,26.6047512 106.252033,26.6047512 C106.874943,26.6047512 107.497852,26.4679353 107.904097,26.1666667 C108.310343,25.8656716 108.418675,25.4552239 108.418675,24.9629602 C108.418675,24.7164179 108.445758,24.4427861 108.310343,24.2512438 C108.174928,24.0597015 107.985617,23.8955224 107.741599,23.7587065 C107.497852,23.6218905 107.227022,23.4850746 106.902297,23.3756219 C106.5773,23.2661692 106.279116,23.1567164 105.927037,23.0746269 C105.520792,22.9651741 105.114547,22.8283582 104.708302,22.6915423 C104.302056,22.5547264 103.923165,22.3634577 103.598169,22.1442786 C103.272902,21.9253731 103.002072,21.6517413 102.81249,21.3233831 C102.595826,20.9950249 102.433599,20.5024876 102.433599,20.0099502 C102.433599,19.5721393 102.569014,19.2164179 102.758324,18.8606965 C102.921093,18.4776119 103.16457,18.1766169 103.489566,17.9029851 C103.814562,17.6293532 104.166641,17.4378109 104.60024,17.300995 C105.033298,17.1641791 105.439543,17 105.954391,17 C106.604113,17 107.281188,17.1915423 107.931451,17.4104478 C108.581173,17.6293532 109.176999,17.9029851 109.718659,18.2587065 L109.014772,19.4353234 C108.527278,19.1343284 108.039512,18.8880597 107.497852,18.6965174 C106.983546,18.5049751 106.441885,18.3955224 105.927037,18.3955224 C105.304128,18.3955224 104.843717,18.5870647 104.491637,18.8606965 C104.139829,19.1616915 104.031226,19.5995025 104.031226,20.0373134 C104.031226,20.2835821 104.004414,20.4477612 104.166641,20.6119403 C104.302056,20.8034826 104.51872,20.9402985 104.762468,21.0771144 C105.006486,21.2139303 105.304128,21.3233831 105.602041,21.4328358 C105.927037,21.5425622 106.252033,21.6517413 106.604113,21.761194 C107.010358,21.8706468 107.389791,22.0074627 107.796036,22.1716418 C108.174928,22.3084577 108.55409,22.5002736 108.852003,22.7462687 C109.176999,22.9651741 109.421017,23.238806 109.610598,23.5671642 C109.799909,23.8955224 109.98949,24.2238806 109.98949,24.6893284 C110.043656,25.2089552 109.881428,25.7838557 109.664493,26.1666667" id="Fill-22" fill="#77BF44"></path>
            </g>
        </g>
    </g>
</svg>