<?xml version="1.0" encoding="UTF-8"?>
<svg width="99px" height="99px" viewBox="0 0 99 99" version="1.1" xmlns="http://www.w3.org/2000/svg" xmlns:xlink="http://www.w3.org/1999/xlink">
    <!-- Generator: sketchtool 53.2 (72643) - https://sketchapp.com -->
    <title>AA056866-D87C-48A3-8BBC-9E535CFF1E58</title>
    <desc>Created with sketchtool.</desc>
    <g id="Page-1" stroke="none" stroke-width="1" fill="none" fill-rule="evenodd">
        <g id="Homepage" transform="translate(-118.000000, -673.000000)">
            <g id="Thought-leadersip-icon_WEB" transform="translate(118.000000, 673.000000)">
                <circle id="Oval" fill="#77BF44" cx="49.5" cy="49.5" r="49.5"></circle>
                <circle id="Oval" stroke="#FFFFFF" stroke-width="5" cx="49.5" cy="49.5" r="39.5"></circle>
                <circle id="Oval" stroke="#77BF44" stroke-width="5" cx="49.5" cy="49.5" r="34.5"></circle>
                <g id="Group-11" transform="translate(27.000000, 17.000000)">
                    <path d="M22.5,31 C26.6355319,31 30,27.411234 30,23 C30,18.588766 26.6355319,15 22.5,15 C18.3644681,15 15,18.588766 15,23 C15,27.411234 18.3644681,31 22.5,31 Z" id="Stroke-1" stroke="#FFFFFF" stroke-width="4"></path>
                    <path d="M34.3803333,39.5354521 L32.952,38.7529863 C32.5823333,38.550137 32.2653333,38.3650411 31.979,38.1980274 C30.761,37.4865753 30.026,37.0568767 28.1546667,37.005589 C27.8436667,36.9940822 27.535,37.0805479 27.26,37.2469041 L22.842,39.9227397 C22.5283333,40.1127671 22.1383333,40.1127671 21.8246667,39.9227397 L17.3943333,37.2390137 C17.1363333,37.0828493 16.8396667,37 16.5366667,37 C14.905,37 14.397,37.2600548 13.4746667,37.7324932 C13.1466667,37.9001644 12.7753333,38.0905205 12.271,38.3114521 L10.8703333,38.925589 C9.73433333,39.4233425 9,40.5375342 9,41.7638356 L9,56.4067945 C9,56.7937534 9.06466667,57.1563836 9.17266667,57.5012603 C13.1003333,59.7230685 17.6476667,61 22.5,61 C27.244,61 31.6973333,59.7812603 35.564,57.6508493 C35.8323333,57.1853151 36,56.6918356 36,56.1546301 L36,42.2507397 C36,41.1233973 35.3793333,40.0828493 34.3803333,39.5354521 Z" id="Stroke-3" stroke="#FFFFFF" stroke-width="4"></path>
                    <polygon id="Fill-5" fill="#FFFFFF" points="0 24 9 24 9 21 0 21"></polygon>
                    <polygon id="Fill-7" fill="#FFFFFF" points="36 24 45 24 45 21 36 21"></polygon>
                    <polygon id="Fill-8" fill="#FFFFFF" points="40 7.60398145 37.3960186 5 31 11.3956707 33.6039814 14"></polygon>
                    <polygon id="Fill-9" fill="#FFFFFF" points="14 11.3960186 7.60398145 5 5 7.60432934 11.3960186 14"></polygon>
                    <polygon id="Fill-10" fill="#FFFFFF" points="21 9 24 9 24 0 21 0"></polygon>
                </g>
            </g>
        </g>
    </g>
</svg>