<?xml version="1.0" encoding="UTF-8"?>
<svg width="99px" height="99px" viewBox="0 0 99 99" version="1.1" xmlns="http://www.w3.org/2000/svg" xmlns:xlink="http://www.w3.org/1999/xlink">
    <!-- Generator: sketchtool 53.2 (72643) - https://sketchapp.com -->
    <title>0E7A46F6-29B4-4D7D-99F7-071993B2DD0C</title>
    <desc>Created with sketchtool.</desc>
    <g id="Page-1" stroke="none" stroke-width="1" fill="none" fill-rule="evenodd">
        <g id="Homepage" transform="translate(-541.000000, -673.000000)">
            <g id="Bus-performance-icon_WEB" transform="translate(541.000000, 673.000000)">
                <g id="Group-2">
                    <circle id="Oval" fill="#77BF44" cx="49.5" cy="49.5" r="49.5"></circle>
                    <circle id="Oval" stroke="#FFFFFF" stroke-width="5" cx="49.5" cy="49.5" r="39.5"></circle>
                    <g id="Group-7" transform="translate(24.000000, 24.000000)" fill="#FFFFFF">
                        <path d="M0,27 C0,12.112 11.0806053,0 24.7008209,0 C27.8548413,0 30.9279893,0.6416 33.8350015,1.9072 C34.9207398,2.3796 35.9856196,2.9424 37,3.5804 L33.8350015,7.34171132 C32.7814503,6.49922283 32.1661682,6.0563217 31.9891552,6.01300793 C29.8099975,5.47978421 27.0629512,5.00393837 24.7008209,5.00393837 C14.5109089,5.00393837 4.53128782,15.8616 4.53128782,27 L0,27 Z" id="Fill-1"></path>
                        <path d="M25,25.1940922 C23.7872,25.1940922 22.8,26.2357145 22.8,27.5163145 C22.8,28.7969145 23.7872,29.8385367 25,29.8385367 C26.2128,29.8385367 27.2,28.7969145 27.2,27.5163145 C27.2,26.2357145 26.2128,25.1777778 25,25.1777778 M17.9976098,27.5 C17.9976098,23.9157556 21.6917333,20.9896261 25,20.9896261 C28.3082667,20.9896261 32.0115309,23.9157556 32.0115309,27.5 C32.0115309,31.0842444 28.3082667,35 25,35 C21.6917333,35 17.9976098,31.0842444 17.9976098,27.5 Z" id="Fill-3"></path>
                        <polygon id="Fill-5" points="30.1878787 26 27 22.5668999 41 6.45580893 44.0517272 10.3358752"></polygon>
                    </g>
                </g>
            </g>
        </g>
    </g>
</svg>